<?xml version="1.0" encoding="UTF-8"?>
<svg version="1.1" xmlns="http://www.w3.org/2000/svg" width="1024" height="1024">
<path d="M0 0 C0.33 -0.66 0.66 -1.32 1 -2 C1 -1.01 1 -0.02 1 1 C1.65742188 1.09023438 2.31484375 1.18046875 2.9921875 1.2734375 C6.96576176 2.2332879 10.4447866 3.86983386 14.125 5.625 C14.88200195 5.9854541 15.63900391 6.3459082 16.41894531 6.71728516 C31.58681945 14.06856629 44.78054358 24.47698928 57 36 C58.01126953 36.93199219 58.01126953 36.93199219 59.04296875 37.8828125 C88.01176879 65.52170754 102.93147435 106.431501 104.2265625 145.78125 C105.19175383 192.93334594 88.33871034 234.07896744 56 268 C54.92105469 269.14082031 54.92105469 269.14082031 53.8203125 270.3046875 C50.38889421 273.85001179 50.38889421 273.85001179 49 275 C48.34 275 47.68 275 47 275 C47 275.66 47 276.32 47 277 C42.39310062 281.25252251 37.25200992 284.60115181 32 288 C31.1646875 288.55816406 30.329375 289.11632812 29.46875 289.69140625 C9.33712422 302.92498967 -14.76787112 311.93520605 -39 313 C-40.71509766 313.07927734 -40.71509766 313.07927734 -42.46484375 313.16015625 C-77.47307488 313.97760733 -110.392427 302.16054422 -138 281 C-139.01449219 280.22269531 -140.02898437 279.44539063 -141.07421875 278.64453125 C-145.94189038 274.78625401 -150.30968528 270.86177599 -154.26953125 266.07421875 C-156.2021026 263.75775061 -158.25254609 261.57875523 -160.3125 259.375 C-175.11391575 242.82045548 -185.57070492 223.21026584 -192 202 C-192.37640625 200.81921875 -192.7528125 199.6384375 -193.140625 198.421875 C-205.75484777 155.68413516 -199.38038859 109.45427368 -178.66748047 70.50170898 C-171.52179216 57.55705621 -162.14936341 46.66418619 -152 36 C-150.85144531 34.73736328 -150.85144531 34.73736328 -149.6796875 33.44921875 C-132.11273818 14.78061329 -107.54589558 2.46366347 -83 -4 C-82.31437988 -4.18336914 -81.62875977 -4.36673828 -80.92236328 -4.55566406 C-56.68828343 -10.82501893 -23.15891895 -11.57945947 0 0 Z M-56 23 C-56.99 23.66 -57.98 24.32 -59 25 C-59 24.67 -59 24.34 -59 24 C-69.4115909 24.19610873 -78.30377294 26.51832351 -88 30 C-89.02996094 30.35964844 -90.05992187 30.71929687 -91.12109375 31.08984375 C-103.7014715 35.88643283 -114.95552691 43.40548865 -124.62109375 52.7109375 C-126.69641391 54.7078794 -128.82411299 56.50577012 -131.0625 58.3125 C-152.93337029 77.46067011 -165.90349543 110.22120002 -167.87109375 138.66308594 C-169.87900368 175.06405912 -161.49209688 211.11137978 -136.81884766 238.86987305 C-134.59367605 241.29443702 -132.29823488 243.64447774 -130 246 C-128.83597656 247.27423828 -128.83597656 247.27423828 -127.6484375 248.57421875 C-108.49691859 268.97474976 -80.81417619 280.15585022 -53.09375 281.21875 C-21.3562864 281.99383699 7.55091403 271.93832505 30.90063477 249.9375 C32.27010602 248.62814741 33.63521544 247.31423698 35 246 C35.63292969 245.43023438 36.26585937 244.86046875 36.91796875 244.2734375 C58.64698902 224.14441634 71.84705637 191.40174016 73.1262207 162.10961914 C74.07240192 122.74547664 63.03508629 87.28829455 35.66650391 58.26586914 C14.9746488 37.05825468 -14.40437226 23.72034848 -44.0859375 22.82421875 C-47.06572607 22.81452313 -50.02414738 22.85574862 -53 23 C-53.33 23.66 -53.66 24.32 -54 25 C-54.99 24.01 -54.99 24.01 -56 23 Z " fill="#F4F4F1" transform="translate(295,350)"/>
<path d="M0 0 C1.16915199 0.02997826 1.16915199 0.02997826 2.36192322 0.06056213 C3.68317955 0.09070656 3.68317955 0.09070656 5.03112793 0.12145996 C5.98841293 0.14849503 6.94569794 0.17553009 7.93199158 0.2033844 C8.90720261 0.22699539 9.88241364 0.25060638 10.88717651 0.27493286 C14.01553666 0.35177702 17.14366205 0.43571156 20.27183533 0.51979065 C22.38705804 0.57299058 24.50229237 0.62573109 26.61753845 0.67799377 C31.81495073 0.80742004 37.01218733 0.94267488 42.20933533 1.08229065 C40.62636777 6.50800302 39.01752187 11.87091361 36.93199158 17.12916565 C36.29559753 18.74190369 36.29559753 18.74190369 35.64634705 20.38722229 C34.96596375 22.09253113 34.96596375 22.09253113 34.27183533 23.83229065 C33.78730896 25.05617493 33.30278259 26.2800592 32.80357361 27.54103088 C28.93625443 37.30429997 25.02594056 47.05055051 21.12046814 56.79859924 C16.93532427 67.24837982 12.77247388 77.70695802 8.62590027 88.17210388 C7.90724956 89.98501937 7.18784692 91.79763703 6.46757507 93.60990906 C6.12696045 94.46712555 5.78634583 95.32434204 5.43540955 96.20753479 C5.09608902 97.06063736 4.75676849 97.91373993 4.40716553 98.79269409 C3.71991447 100.53715503 3.04173492 102.2852144 2.3722229 104.03656006 C0.64035049 108.55859823 -1.18489752 112.96818882 -3.27528381 117.33717346 C-11.61075571 135.58389751 -11.05622904 153.76929902 -10.87220764 173.42451477 C-10.83436917 178.70552772 -10.86464964 183.98657928 -10.88288116 189.26763916 C-10.90297842 197.20704403 -10.83913029 205.14168316 -10.79066467 213.08229065 C-24.98066467 213.08229065 -39.17066467 213.08229065 -53.79066467 213.08229065 C-53.67722717 207.92732971 -53.56378967 202.77236877 -53.44691467 197.4611969 C-52.28404128 145.98919618 -52.28404128 145.98919618 -68.81166077 97.90699768 C-72.02450153 91.87610196 -74.37798175 85.46472896 -76.79066467 79.08229065 C-77.45066467 79.08229065 -78.11066467 79.08229065 -78.79066467 79.08229065 C-78.89499817 77.92729065 -78.99933167 76.77229065 -79.10682678 75.58229065 C-79.67166826 71.0985267 -81.02421682 67.2451831 -82.73207092 63.08229065 C-83.01920456 62.36114075 -83.3063382 61.63999084 -83.60217285 60.89698792 C-84.51039129 58.62178622 -85.43150208 56.35207474 -86.35316467 54.08229065 C-86.97577367 52.52925141 -87.59752668 50.97586872 -88.21839905 49.4221344 C-89.7326281 45.63814685 -91.25843251 41.85902213 -92.79066467 38.08229065 C-93.78066467 38.57729065 -93.78066467 38.57729065 -94.79066467 39.08229065 C-95.45066467 37.43229065 -96.11066467 35.78229065 -96.79066467 34.08229065 C-95.80066467 33.58729065 -95.80066467 33.58729065 -94.79066467 33.08229065 C-95.11865051 32.24979797 -95.44663635 31.4173053 -95.78456116 30.55958557 C-97.00214443 27.4680335 -98.21902837 24.37620808 -99.43544006 21.28419495 C-99.96185283 19.94651964 -100.48854335 18.60895361 -101.01551819 17.27149963 C-101.77333112 15.34804042 -102.53014127 13.42418926 -103.28675842 11.5002594 C-103.74236145 10.34292297 -104.19796448 9.18558655 -104.66737366 7.99317932 C-105.42109122 6.04000077 -106.12862263 4.06841677 -106.79066467 2.08229065 C-105.79066467 1.08229065 -105.79066467 1.08229065 -103.96203613 0.96203613 C-103.16483658 0.96425674 -102.36763702 0.96647736 -101.54627991 0.96876526 C-100.6454216 0.96884079 -99.74456329 0.96891632 -98.81640625 0.96899414 C-97.83724747 0.97415543 -96.85808868 0.97931671 -95.84925842 0.9846344 C-94.85185135 0.98604935 -93.85444427 0.98746429 -92.82681274 0.98892212 C-89.62723344 0.99453951 -86.42772299 1.00709494 -83.22816467 1.01979065 C-81.06475422 1.02480341 -78.90134268 1.0293667 -76.7379303 1.03346252 C-71.42215142 1.04451458 -66.10641296 1.06126961 -60.79066467 1.08229065 C-58.04186559 8.18931782 -55.6659775 15.40303875 -53.29847717 22.64479065 C-52.86645504 23.96270008 -52.43431358 25.28057041 -52.00205994 26.59840393 C-51.09832968 29.35489037 -50.19576144 32.11175359 -49.29408264 34.86891174 C-48.15411231 38.35454365 -47.01167888 41.83936196 -45.86845779 45.32392883 C-36.87036428 72.75509193 -36.87036428 72.75509193 -32.79066467 86.08229065 C-30.93372394 83.29687956 -30.01803782 81.15300829 -28.96229553 78.01368713 C-28.61110153 76.9766716 -28.25990753 75.93965607 -27.89807129 74.87121582 C-27.52102554 73.74333145 -27.1439798 72.61544708 -26.75550842 71.4533844 C-26.35795853 70.27631424 -25.96040863 69.09924408 -25.55081177 67.88650513 C-24.48749988 64.73614603 -23.42790105 61.58458942 -22.37025452 58.43232727 C-20.50447569 52.87489575 -18.62913902 47.32067245 -16.75550842 41.7658844 C-16.34690582 40.55435699 -15.93830322 39.34282959 -15.51731873 38.09458923 C-12.61196622 29.49003656 -9.6869886 20.89259603 -6.73207092 12.3049469 C-6.15839027 10.62809059 -6.15839027 10.62809059 -5.57312012 8.9173584 C-5.22153336 7.89936661 -4.86994659 6.88137482 -4.50770569 5.83253479 C-4.19914139 4.93587601 -3.89057709 4.03921722 -3.57266235 3.11538696 C-2.41710374 0.11107889 -2.41710374 0.11107889 0 0 Z " fill="#F5F4F1" transform="translate(880.7906646728516,396.91770935058594)"/>
<path d="M0 0 C99 0 99 0 102 2 C101.34 2 100.68 2 100 2 C100.08378906 2.70640625 100.16757812 3.4128125 100.25390625 4.140625 C101.2818937 14.49857448 100.67172863 24.63471052 100 35 C100.66 35.33 101.32 35.66 102 36 C102.33 36.99 102.66 37.98 103 39 C99.98264848 40.00578384 97.89168975 40.14766386 94.73413086 40.18945312 C93.65969223 40.20617065 92.5852536 40.22288818 91.47825623 40.2401123 C90.31883011 40.25368774 89.15940399 40.26726318 87.96484375 40.28125 C86.1804464 40.30886414 86.1804464 40.30886414 84.36000061 40.33703613 C79.25921764 40.41584404 74.15830078 40.48356186 69.05737305 40.55224609 C65.33896163 40.60388083 61.62066694 40.66116141 57.90234375 40.71875 C56.16016823 40.73911316 56.16016823 40.73911316 54.38279724 40.7598877 C52.77586754 40.78496399 52.77586754 40.78496399 51.13647461 40.81054688 C49.71775307 40.82933899 49.71775307 40.82933899 48.27037048 40.84851074 C45.96734827 40.85521186 45.96734827 40.85521186 44 42 C43.67 57.18 43.34 72.36 43 88 C59.83 88 76.66 88 94 88 C94.020625 93.89875 94.04125 99.7975 94.0625 105.875 C94.071604 107.73624512 94.08070801 109.59749023 94.09008789 111.51513672 C94.09300788 112.98665291 94.09555624 114.45816991 94.09765625 115.9296875 C94.10277222 116.69676025 94.10788818 117.46383301 94.11315918 118.25415039 C94.1140718 123.7718564 94.1140718 123.7718564 93 126 C90.66752239 126.33926947 88.33414529 126.67240066 86 127 C85.34 127.66 84.68 128.32 84 129 C84 128.01 84 127.02 84 126 C70.47 126 56.94 126 43 126 C43 154.38 43 182.76 43 212 C28.81 212 14.62 212 0 212 C0 142.04 0 72.08 0 0 Z " fill="#F8F8F4" transform="translate(520,398)"/>
<path d="M0 0 C40.59 0 81.18 0 123 0 C123 13.2 123 26.4 123 40 C109.8 40.33 96.6 40.66 83 41 C83 97.43 83 153.86 83 212 C69.14 212 55.28 212 41 212 C39.73199929 209.46399858 39.87414547 207.7096418 39.87301636 204.86988831 C39.87019653 203.78180878 39.86737671 202.69372925 39.86447144 201.57267761 C39.86649567 200.37250504 39.8685199 199.17233246 39.87060547 197.93579102 C39.86885315 196.67498718 39.86710083 195.41418335 39.86529541 194.11517334 C39.86071734 190.63990238 39.86251616 187.16466098 39.8656745 183.68938947 C39.8682142 180.0208664 39.86585441 176.3523458 39.86428833 172.68382263 C39.86246377 166.48704582 39.86487253 160.29028087 39.86962891 154.09350586 C39.87440624 147.79857605 39.87450821 141.50366996 39.86962891 135.20874023 C39.81850609 67.7438295 39.81850609 67.7438295 41 40 C39.14483765 40.00785522 39.14483765 40.00785522 37.25219727 40.01586914 C32.68075275 40.03391561 28.10931141 40.04543071 23.5378418 40.05493164 C21.55606559 40.05997267 19.57429311 40.06680538 17.5925293 40.07543945 C14.75047891 40.08751515 11.90847753 40.09323045 9.06640625 40.09765625 C7.72891075 40.10539818 7.72891075 40.10539818 6.36439514 40.11329651 C4.24259399 40.11349177 2.1208922 40.0621003 0 40 C-1.81103986 38.18896014 -1.12859937 35.70694539 -1.13894653 33.29676819 C-1.1369223 32.49887375 -1.13489807 31.70097931 -1.1328125 30.87890625 C-1.13376923 30.06381088 -1.13472595 29.24871552 -1.13571167 28.40892029 C-1.13639353 26.68138553 -1.13453884 24.95384823 -1.13037109 23.22631836 C-1.12502975 20.57725272 -1.13031232 17.92835716 -1.13671875 15.27929688 C-1.13605783 13.60416629 -1.13477639 11.92903581 -1.1328125 10.25390625 C-1.13483673 9.45803604 -1.13686096 8.66216583 -1.13894653 7.84217834 C-1.11495544 2.22991088 -1.11495544 2.22991088 0 0 Z " fill="#F5F5F1" transform="translate(640,398)"/>
<path d="M0 0 C14.19 0 28.38 0 43 0 C43 69.96 43 139.92 43 212 C28.81 212.33 14.62 212.66 0 213 C0 142.71 0 72.42 0 0 Z " fill="#F4F4F1" transform="translate(446,398)"/>
<path d="M0 0 C1.35970917 0.01640533 1.35970917 0.01640533 2.74688721 0.03314209 C4.28418488 0.0487619 4.28418488 0.0487619 5.85253906 0.06469727 C6.96912903 0.08232117 8.08571899 0.09994507 9.23614502 0.11810303 C10.37706604 0.134599 11.51798706 0.15109497 12.69348145 0.16809082 C15.11465011 0.20567672 17.53577415 0.24623339 19.95684814 0.28948975 C23.65926908 0.35197173 27.36155692 0.39355443 31.06427002 0.43450928 C33.41325026 0.47357814 35.76221003 0.51390204 38.11114502 0.55560303 C39.77388458 0.56989349 39.77388458 0.56989349 41.47021484 0.58447266 C43.02642548 0.61900543 43.02642548 0.61900543 44.61407471 0.65423584 C45.97855743 0.67541473 45.97855743 0.67541473 47.37060547 0.69702148 C52.29385399 1.47414255 55.72675138 4.43102815 58.93927002 8.10247803 C60.05226273 11.44145617 60.14755369 14.09829711 60.25567627 17.61810303 C60.27645737 18.28563095 60.29723846 18.95315887 60.31864929 19.64091492 C60.3854694 21.87797817 60.44409887 24.11516127 60.50177002 26.35247803 C60.52328125 27.12459625 60.54479248 27.89671448 60.56695557 28.69223022 C61.02131848 45.26782005 61.00529455 61.84138728 60.90240479 78.42181396 C60.8981398 79.3971962 60.89387482 80.37257843 60.88948059 81.3775177 C60.88130881 83.1972354 60.86898865 85.01694175 60.85148621 86.83659363 C60.33417493 96.85759497 60.33417493 96.85759497 64.06427002 105.53997803 C67.48097381 107.53204769 67.48097381 107.53204769 73.93927002 109.10247803 C73.93927002 115.37247803 73.93927002 121.64247803 73.93927002 128.10247803 C48.52927002 128.10247803 23.11927002 128.10247803 -3.06072998 128.10247803 C-3.06072998 121.83247803 -3.06072998 115.56247803 -3.06072998 109.10247803 C1.93927002 107.10247803 1.93927002 107.10247803 4.56427002 106.72747803 C7.69400626 105.90386323 8.28745215 104.84981854 9.93927002 102.10247803 C11.6312784 93.2426401 11.09689537 83.78910921 11.06964111 74.77947998 C11.06421403 72.64293529 11.06965973 70.50659507 11.07598877 68.37005615 C11.07532891 66.9904984 11.07404966 65.61094078 11.07208252 64.23138428 C11.07095459 63.00492188 11.06982666 61.77845947 11.06866455 60.51483154 C10.94633598 57.28881941 10.5487867 54.26899889 9.93927002 51.10247803 C10.59927002 51.10247803 11.25927002 51.10247803 11.93927002 51.10247803 C11.67168993 46.41128667 11.38499862 41.72218586 11.06719971 37.03411865 C10.96492414 35.4898357 10.87569211 33.94469085 10.79083252 32.39935303 C10.54936068 29.38670438 10.09363827 27.34046242 8.43927002 24.78997803 C6.00645405 23.14782725 4.05537242 22.38705407 1.28302002 21.49700928 C0.47026611 21.23379883 -0.34248779 20.97058838 -1.17987061 20.69940186 C-1.8005542 20.50241699 -2.42123779 20.30543213 -3.06072998 20.10247803 C-3.08961512 16.95666379 -3.10748921 13.81088334 -3.12322998 10.66497803 C-3.13160889 9.767146 -3.13998779 8.86931396 -3.14862061 7.9442749 C-3.15184326 7.090271 -3.15506592 6.23626709 -3.15838623 5.35638428 C-3.16624146 4.17024536 -3.16624146 4.17024536 -3.17425537 2.96014404 C-3.01165278 0.29940614 -2.65764815 0.13216217 0 0 Z " fill="#F7F7F4" transform="translate(214.06072998046875,476.89752197265625)"/>
<path d="M0 0 C7.72819485 6.35429354 12.98185775 13.35051906 14.19140625 23.48828125 C14.52131626 32.54484325 12.71023615 39.94959752 7.0625 47.125 C0.58757445 54.04028572 -7.12416068 57.30995112 -16.5625 57.625 C-26.34698756 57.4236731 -33.92761546 53.81823102 -40.8125 46.875 C-46.21675075 40.41391799 -48.62737387 32.1304891 -48.3125 23.75 C-47.06088877 15.1889792 -43.05357674 6.74330756 -36.046875 1.48828125 C-24.17009589 -6.02203495 -12.55311352 -6.64576598 0 0 Z " fill="#F4F4F1" transform="translate(264.1875,406.6875)"/>
<path d="M0 0 C99 0 99 0 102 2 C101.34 2 100.68 2 100 2 C100.08378906 2.70640625 100.16757812 3.4128125 100.25390625 4.140625 C101.2818937 14.49857448 100.67172863 24.63471052 100 35 C100.66 35.33 101.32 35.66 102 36 C102.33 36.99 102.66 37.98 103 39 C99.98264848 40.00578384 97.89168975 40.14766386 94.73413086 40.18945312 C93.65969223 40.20617065 92.5852536 40.22288818 91.47825623 40.2401123 C90.31883011 40.25368774 89.15940399 40.26726318 87.96484375 40.28125 C86.1804464 40.30886414 86.1804464 40.30886414 84.36000061 40.33703613 C79.25921764 40.41584404 74.15830078 40.48356186 69.05737305 40.55224609 C65.33896163 40.60388083 61.62066694 40.66116141 57.90234375 40.71875 C56.16016823 40.73911316 56.16016823 40.73911316 54.38279724 40.7598877 C52.77586754 40.78496399 52.77586754 40.78496399 51.13647461 40.81054688 C49.71775307 40.82933899 49.71775307 40.82933899 48.27037048 40.84851074 C45.96734827 40.85521186 45.96734827 40.85521186 44 42 C43.67 57.18 43.34 72.36 43 88 C59.83 88 76.66 88 94 88 C94.020625 93.89875 94.04125 99.7975 94.0625 105.875 C94.071604 107.73624512 94.08070801 109.59749023 94.09008789 111.51513672 C94.09300788 112.98665291 94.09555624 114.45816991 94.09765625 115.9296875 C94.10277222 116.69676025 94.10788818 117.46383301 94.11315918 118.25415039 C94.1140718 123.7718564 94.1140718 123.7718564 93 126 C90.66752239 126.33926947 88.33414529 126.67240066 86 127 C85.34 127.66 84.68 128.32 84 129 C84 128.01 84 127.02 84 126 C70.47 126 56.94 126 43 126 C43 154.38 43 182.76 43 212 C28.81 212 14.62 212 0 212 C0 142.04 0 72.08 0 0 Z M1 1 C1 70.3 1 139.6 1 211 C14.53 211 28.06 211 42 211 C42 182.62 42 154.24 42 125 C58.5 125 75 125 92 125 C92 113.12 92 101.24 92 89 C75.5 89 59 89 42 89 C42 72.5 42 56 42 39 C60.48 39 78.96 39 98 39 C98 26.46 98 13.92 98 1 C65.99 1 33.98 1 1 1 Z " fill="#BEBEBC" transform="translate(520,398)"/>
<path d="M0 0 C1.32 0.66 2.64 1.32 4 2 C3.34 2 2.68 2 2 2 C2.08378906 2.70640625 2.16757812 3.4128125 2.25390625 4.140625 C3.2818937 14.49857448 2.67172863 24.63471052 2 35 C2.99 35.495 2.99 35.495 4 36 C4.33 36.99 4.66 37.98 5 39 C1.98264848 40.00578384 -0.10831025 40.14766386 -3.26586914 40.18945312 C-4.34030777 40.20617065 -5.4147464 40.22288818 -6.52174377 40.2401123 C-7.68116989 40.25368774 -8.84059601 40.26726318 -10.03515625 40.28125 C-11.8195536 40.30886414 -11.8195536 40.30886414 -13.63999939 40.33703613 C-18.74078236 40.41584404 -23.84169922 40.48356186 -28.94262695 40.55224609 C-32.66103837 40.60388083 -36.37933306 40.66116141 -40.09765625 40.71875 C-41.83983177 40.73911316 -41.83983177 40.73911316 -43.61720276 40.7598877 C-45.22413246 40.78496399 -45.22413246 40.78496399 -46.86352539 40.81054688 C-48.28224693 40.82933899 -48.28224693 40.82933899 -49.72962952 40.84851074 C-52.03265173 40.85521186 -52.03265173 40.85521186 -54 42 C-54.33 57.18 -54.66 72.36 -55 88 C-53.35 88 -51.7 88 -50 88 C-50 88.33 -50 88.66 -50 89 C-51.98 89 -53.96 89 -56 89 C-56 72.5 -56 56 -56 39 C-37.52 39 -19.04 39 0 39 C0 26.13 0 13.26 0 0 Z " fill="#D4D4D1" transform="translate(618,398)"/>
<path d="M0 0 C0 0.66 0 1.32 0 2 C-2.64 2.33 -5.28 2.66 -8 3 C-8 8.61 -8 14.22 -8 20 C16.42 20 40.84 20 66 20 C66 14.39 66 8.78 66 3 C64.02 2.67 62.04 2.34 60 2 C63.01031744 1.06576355 63.86650268 0.95550089 67 2 C67 8.27 67 14.54 67 21 C41.59 21 16.18 21 -10 21 C-10 14.73 -10 8.46 -10 2 C-6.3558226 -0.4294516 -4.28758728 -0.16179575 0 0 Z " fill="#CBCAC7" transform="translate(221,584)"/>
<path d="M0 0 C2.81205316 2.81205316 2.25975501 4.60201064 2.2746582 8.54174805 C2.27976913 9.21354599 2.28488007 9.88534393 2.29014587 10.57749939 C2.30408102 12.80566242 2.30308127 15.03351722 2.30078125 17.26171875 C2.304668 18.81150935 2.30900263 20.36129888 2.31376648 21.91108704 C2.32123853 25.16528772 2.32093177 28.41937997 2.31567383 31.67358398 C2.30989877 35.83193164 2.32675736 39.98983104 2.3500185 44.14810467 C2.36480113 47.3524279 2.36562105 50.55664457 2.36250877 53.76099586 C2.36302041 55.29310807 2.36822839 56.82522648 2.37832069 58.35730553 C2.39074663 60.50891906 2.3838561 62.65967801 2.37231445 64.8112793 C2.37294388 66.03324509 2.3735733 67.25521088 2.3742218 68.51420593 C1.93566682 72.59924945 0.78082364 75.32108359 -1 79 C-1.99 79 -2.98 79 -4 79 C-3.51901855 78.45802979 -3.03803711 77.91605957 -2.54248047 77.35766602 C2.3853349 69.82554936 0.15730133 56.57951538 0.13037109 47.67700195 C0.12494401 45.54045727 0.13038971 43.40411704 0.13671875 41.26757812 C0.13605889 39.88802038 0.13477964 38.50846275 0.1328125 37.12890625 C0.13112061 35.28921265 0.13112061 35.28921265 0.12939453 33.41235352 C0.00706596 30.18634139 -0.39048332 27.16652086 -1 24 C-0.34 24 0.32 24 1 24 C0.9278125 22.9378125 0.855625 21.875625 0.78125 20.78125 C0.68736353 19.35417564 0.59362127 17.92709178 0.5 16.5 C0.45230469 15.80390625 0.40460938 15.1078125 0.35546875 14.390625 C0.04386633 9.58304475 -0.04340282 4.81771254 0 0 Z " fill="#D6D6D3" transform="translate(225,504)"/>
<path d="M0 0 C0.90948898 0.01395309 1.81897797 0.02790619 2.75602722 0.0422821 C3.78412003 0.055923 4.81221283 0.0695639 5.87145996 0.08361816 C6.99118698 0.10437912 8.110914 0.12514008 9.26457214 0.14653015 C10.97951118 0.17483162 10.97951118 0.17483162 12.72909546 0.20370483 C15.15446185 0.24568064 17.57978159 0.29042699 20.00505066 0.33769226 C23.71841577 0.40774661 27.43179593 0.46215733 31.14543152 0.51567078 C33.49766268 0.55832971 35.84987719 0.60191904 38.20207214 0.64653015 C39.87255363 0.66856255 39.87255363 0.66856255 41.57678223 0.69104004 C43.13310616 0.72568611 43.13310616 0.72568611 44.72087097 0.7610321 C45.63274673 0.77737198 46.5446225 0.79371185 47.48413086 0.81054688 C50.05003456 1.1094351 51.71699066 1.80013915 53.93254089 3.0957489 C53.27254089 3.4257489 52.61254089 3.7557489 51.93254089 4.0957489 C50.94254089 3.7657489 49.95254089 3.4357489 48.93254089 3.0957489 C47.29166301 2.98082106 45.6467631 2.91942536 44.00212097 2.89042664 C42.50090446 2.8605088 42.50090446 2.8605088 40.96936035 2.82998657 C39.89115524 2.81327408 38.81295013 2.79656158 37.70207214 2.77934265 C36.04373604 2.74817101 36.04373604 2.74817101 34.35189819 2.71636963 C30.81634299 2.65092558 27.28071283 2.59201287 23.74504089 2.5332489 C21.34985082 2.49005881 18.95466835 2.44644436 16.55949402 2.40238953 C10.68392002 2.29524938 4.80827054 2.19396723 -1.06745911 2.0957489 C-1.06745911 8.0357489 -1.06745911 13.9757489 -1.06745911 20.0957489 C0.58254089 20.0957489 2.23254089 20.0957489 3.93254089 20.0957489 C3.93254089 20.4257489 3.93254089 20.7557489 3.93254089 21.0957489 C1.93299343 21.13829246 -0.06787547 21.13655673 -2.06745911 21.0957489 C-3.62352661 19.5396814 -3.19716679 18.03617519 -3.20027161 15.8769989 C-3.20156067 15.02750671 -3.20284973 14.17801453 -3.20417786 13.30278015 C-3.20031067 12.40945984 -3.19644348 11.51613953 -3.19245911 10.5957489 C-3.19632629 9.70242859 -3.20019348 8.80910828 -3.20417786 7.88871765 C-3.20288879 7.03922546 -3.20159973 6.18973328 -3.20027161 5.3144989 C-3.19914368 4.53010437 -3.19801575 3.74570984 -3.19685364 2.93754578 C-3.01053859 0.28554441 -2.65276067 0.1228556 0 0 Z " fill="#BABBB9" transform="translate(214.0674591064453,476.9042510986328)"/>
<path d="M0 0 C0.99 0.99 0.99 0.99 2 2 C-1.67683987 1.36334874 -5.1653354 0.35616978 -8.72167969 -0.76464844 C-21.65037339 -4.80449876 -34.4947262 -6.1345693 -48 -7 C-48.33 -6.01 -48.66 -5.02 -49 -4 C-49.66 -4.66 -50.32 -5.32 -51 -6 C-51.33 -5.34 -51.66 -4.68 -52 -4 C-57.75 -3.875 -57.75 -3.875 -60 -5 C-61.99960012 -5.039992 -64.00047242 -5.04346799 -66 -5 C-48.95804633 -15.2251722 -17.20456587 -7.07324757 0 0 Z " fill="#CECDCA" transform="translate(290,380)"/>
<path d="M0 0 C1.98 0.99 1.98 0.99 4 2 C3.34 2 2.68 2 2 2 C2.08378906 2.70640625 2.16757812 3.4128125 2.25390625 4.140625 C3.2818937 14.49857448 2.67172863 24.63471052 2 35 C2.66 35.33 3.32 35.66 4 36 C4.33 36.99 4.66 37.98 5 39 C2.525 39.495 2.525 39.495 0 40 C0 26.8 0 13.6 0 0 Z " fill="#DCDCD9" transform="translate(618,398)"/>
<path d="M0 0 C0.58120605 0.23227295 1.16241211 0.4645459 1.76123047 0.70385742 C-7.12548828 9.59057617 -7.12548828 9.59057617 -8.7121582 11.17138672 C-10.14123133 12.60594485 -11.55017152 14.06048016 -12.95751953 15.51635742 C-15.31078332 17.77291174 -17.15398813 18.73435469 -20.23876953 19.70385742 C-18.00300271 14.66039975 -14.20204035 11.26019854 -10.36376953 7.39135742 C-9.64318359 6.63790039 -8.92259766 5.88444336 -8.18017578 5.1081543 C-7.48021484 4.40110352 -6.78025391 3.69405273 -6.05908203 2.96557617 C-5.42244629 2.31548584 -4.78581055 1.66539551 -4.12988281 0.99560547 C-2.23876953 -0.29614258 -2.23876953 -0.29614258 0 0 Z " fill="#E7E7E5" transform="translate(155.23876953125,376.296142578125)"/>
<path d="M0 0 C1.32 0.66 2.64 1.32 4 2 C3.01 2 2.02 2 1 2 C1 7.94 1 13.88 1 20 C2.65 20 4.3 20 6 20 C6 20.33 6 20.66 6 21 C4.00045254 21.04254356 1.99958364 21.04080783 0 21 C-1.55606751 19.44393249 -1.12970769 17.94042629 -1.1328125 15.78125 C-1.13410156 14.93175781 -1.13539063 14.08226562 -1.13671875 13.20703125 C-1.13285156 12.31371094 -1.12898437 11.42039062 -1.125 10.5 C-1.12886719 9.60667969 -1.13273438 8.71335937 -1.13671875 7.79296875 C-1.13542969 6.94347656 -1.13414062 6.09398437 -1.1328125 5.21875 C-1.13168457 4.43435547 -1.13055664 3.64996094 -1.12939453 2.84179688 C-1 1 -1 1 0 0 Z " fill="#D3D3D1" transform="translate(212,477)"/>
<path d="M0 0 C-2.68077407 3.27212129 -6.19986853 4.64584614 -10 6.25 C-10.6290625 6.53101563 -11.258125 6.81203125 -11.90625 7.1015625 C-16.630218 9.12326067 -16.630218 9.12326067 -20 8 C-19.34 8 -18.68 8 -18 8 C-18 7.34 -18 6.68 -18 6 C-15.94326547 4.98819502 -13.87934652 3.99098523 -11.8125 3 C-10.08966797 2.1646875 -10.08966797 2.1646875 -8.33203125 1.3125 C-5.20909481 0.08236325 -3.29713518 -0.29804612 0 0 Z " fill="#DBDBD9" transform="translate(314,645)"/>
<path d="M0 0 C1.13665504 3.40996511 0.91583208 3.86305848 -0.43359375 7.01171875 C-0.75263672 7.76904297 -1.07167969 8.52636719 -1.40039062 9.30664062 C-1.74263672 10.09232422 -2.08488281 10.87800781 -2.4375 11.6875 C-2.77587891 12.48478516 -3.11425781 13.28207031 -3.46289062 14.10351562 C-4.3000701 16.07265607 -5.1489353 18.03682084 -6 20 C-8.13298222 13.60105335 -4.89418212 6.79928569 -2 1 C-1.34 0.67 -0.68 0.34 0 0 Z " fill="#DFDFDD" transform="translate(901,451)"/>
<path d="M0 0 C3.24262993 2.72220784 4.89759525 6.27994438 6.75 10 C7.07871094 10.6290625 7.40742188 11.258125 7.74609375 11.90625 C8.57925132 13.56553427 9.29763177 15.28126363 10 17 C9.67 17.99 9.34 18.98 9 20 C8.8453125 19.0409375 8.8453125 19.0409375 8.6875 18.0625 C8.460625 17.381875 8.23375 16.70125 8 16 C7.01 15.67 6.02 15.34 5 15 C2.05738885 10.29182216 1.01593635 5.37848654 0 0 Z " fill="#DDDEDC" transform="translate(376,418)"/>
<path d="M0 0 C2 3 2 3 1.78515625 5.26171875 C0.84815061 8.52958419 -0.31647944 11.64952474 -1.5625 14.8125 C-2.01753906 15.97394531 -2.47257813 17.13539063 -2.94140625 18.33203125 C-3.29074219 19.21246094 -3.64007812 20.09289062 -4 21 C-6.21455254 14.35634238 -2.25702942 6.36482296 0 0 Z " fill="#E3E4E1" transform="translate(889,475)"/>
<path d="M0 0 C5.88291472 -0.75421984 10.37096847 1.54040802 15 5 C15.33 5.99 15.66 6.98 16 8 C10.31497465 6.35433477 5.23318364 3.70967216 0 1 C0 0.67 0 0.34 0 0 Z " fill="#E4E4E3" transform="translate(304,356)"/>
<path d="M0 0 C0 0.66 0 1.32 0 2 C-2.64 2.33 -5.28 2.66 -8 3 C-8 8.61 -8 14.22 -8 20 C-8.33 20 -8.66 20 -9 20 C-9.24798276 17.04213336 -9.47411854 14.08538702 -9.6875 11.125 C-9.76033203 10.28324219 -9.83316406 9.44148437 -9.90820312 8.57421875 C-9.96298828 7.76855469 -10.01777344 6.96289062 -10.07421875 6.1328125 C-10.13182373 5.38918457 -10.18942871 4.64555664 -10.2487793 3.87939453 C-10.16668213 3.25919434 -10.08458496 2.63899414 -10 2 C-6.3558226 -0.4294516 -4.28758728 -0.16179575 0 0 Z " fill="#DFDFDC" transform="translate(221,584)"/>
<path d="M0 0 C1.1875 1.6875 1.1875 1.6875 2 4 C0.76171875 6.35546875 0.76171875 6.35546875 -1 9 C-1.78221277 11.08502868 -2.51132543 13.19071082 -3.1875 15.3125 C-3.70376953 16.91544922 -3.70376953 16.91544922 -4.23046875 18.55078125 C-4.61138672 19.76314453 -4.61138672 19.76314453 -5 21 C-5.99 21 -6.98 21 -8 21 C-7.38722388 18.03824877 -6.74627478 16.61941217 -5 14 C-4.08222456 11.61100272 -3.20911197 9.22996988 -2.375 6.8125 C-2.03082031 5.83120117 -2.03082031 5.83120117 -1.6796875 4.83007812 C-1.11604856 3.22135865 -0.55752016 1.61085023 0 0 Z " fill="#CCCCC9" transform="translate(855,466)"/>
<path d="M0 0 C0.33 0 0.66 0 1 0 C0.49228528 5.96564796 -1.38592128 10.63809899 -4 16 C-5.16344173 12.50967481 -4.76539718 11.43292372 -3.6875 8 C-3.42324219 7.13375 -3.15898437 6.2675 -2.88671875 5.375 C-2 3 -2 3 0 0 Z " fill="#DDDDDB" transform="translate(386,560)"/>
<path d="M0 0 C0 3.51700839 -0.69225467 4.36436147 -2.75 7.125 C-3.26046875 7.82882812 -3.7709375 8.53265625 -4.296875 9.2578125 C-6.19467845 11.19914355 -7.35107221 11.61993645 -10 12 C-8.52278578 8.54798361 -6.56205999 6.35038064 -3.875 3.75 C-3.15054688 3.04359375 -2.42609375 2.3371875 -1.6796875 1.609375 C-1.12539062 1.07828125 -0.57109375 0.5471875 0 0 Z " fill="#DADBD9" transform="translate(145,384)"/>
<path d="M0 0 C-0.33 1.32 -0.66 2.64 -1 4 C-6.75 4.125 -6.75 4.125 -9 3 C-10.99960012 2.960008 -13.00047242 2.95653201 -15 3 C-10.32377925 0.19426755 -5.34965424 0 0 0 Z " fill="#DAD9D6" transform="translate(239,372)"/>
<path d="M0 0 C-0.99 0.495 -0.99 0.495 -2 1 C-2 1.66 -2 2.32 -2 3 C-2.64066406 3.06058594 -3.28132812 3.12117188 -3.94140625 3.18359375 C-8.98423313 3.67209412 -13.9912102 4.23779286 -19 5 C-16.48768622 2.48768622 -14.62148234 2.21338287 -11.1875 1.375 C-10.14980469 1.11460937 -9.11210937 0.85421875 -8.04296875 0.5859375 C-5.26412163 0.05085782 -2.81823638 -0.11460481 0 0 Z " fill="#CDCDCA" transform="translate(221,345)"/>
<path d="M0 0 C1 2 1 2 0.00390625 5.0390625 C-0.47175781 6.22242188 -0.94742188 7.40578125 -1.4375 8.625 C-1.91058594 9.81351562 -2.38367188 11.00203125 -2.87109375 12.2265625 C-3.24363281 13.14179688 -3.61617187 14.05703125 -4 15 C-5.0625 13.1875 -5.0625 13.1875 -6 11 C-5.67 10.01 -5.34 9.02 -5 8 C-4.34 8 -3.68 8 -3 8 C-3.061875 7.05125 -3.12375 6.1025 -3.1875 5.125 C-3.125625 4.09375 -3.06375 3.0625 -3 2 C-2.01 1.34 -1.02 0.68 0 0 Z " fill="#D8D8D5" transform="translate(138,444)"/>
<path d="M0 0 C3.19199167 2.41556126 5.74716687 4.68003538 8 8 C7.67 8.66 7.34 9.32 7 10 C1.21538462 5.69230769 1.21538462 5.69230769 0.125 2.1875 C0.08375 1.465625 0.0425 0.74375 0 0 Z " fill="#D8D8D7" transform="translate(360,396)"/>
<path d="M0 0 C2.1875 0.0625 2.1875 0.0625 5 1 C6.93157957 3.1717219 8.48201687 5.52601047 10 8 C6.05205855 6.32971708 3.18203882 3.8204435 0 1 C0 0.67 0 0.34 0 0 Z " fill="#D7D7D5" transform="translate(150,624)"/>
<path d="M0 0 C1.32 0.33 2.64 0.66 4 1 C-0.455 3.97 -0.455 3.97 -5 7 C-5.66 6.67 -6.32 6.34 -7 6 C-5.75 4 -5.75 4 -4 2 C-2.68 2 -1.36 2 0 2 C0 1.34 0 0.68 0 0 Z " fill="#D7D8D5" transform="translate(189,386)"/>
<path d="M0 0 C0.33 0.66 0.66 1.32 1 2 C-0.21484375 4.3828125 -0.21484375 4.3828125 -1.9375 7.125 C-2.50339844 8.03507813 -3.06929688 8.94515625 -3.65234375 9.8828125 C-4.09707031 10.58148437 -4.54179687 11.28015625 -5 12 C-5.33 10.68 -5.66 9.36 -6 8 C-5.34 8 -4.68 8 -4 8 C-3.67 6.35 -3.34 4.7 -3 3 C-2.34 3 -1.68 3 -1 3 C-0.67 2.01 -0.34 1.02 0 0 Z " fill="#D6D6D4" transform="translate(380,576)"/>
<path d="M0 0 C0 3.39593478 -0.52165948 4.06619881 -2.5 6.6875 C-2.9640625 7.31011719 -3.428125 7.93273437 -3.90625 8.57421875 C-4.2671875 9.04472656 -4.628125 9.51523437 -5 10 C-6 8 -6 8 -5.3125 5.5625 C-3.89170315 2.78856329 -2.60253852 1.64827439 0 0 Z " fill="#D6D6D4" transform="translate(154,418)"/>
<path d="M0 0 C0.99 0.33 1.98 0.66 3 1 C2.01 2.485 2.01 2.485 1 4 C0.34 4 -0.32 4 -1 4 C-1 4.66 -1 5.32 -1 6 C-2.32 5.67 -3.64 5.34 -5 5 C-3.35 3.35 -1.7 1.7 0 0 Z " fill="#E8E7E6" transform="translate(343,621)"/>
<path d="M0 0 C2.8675003 2.69835 4.4497184 5.35683825 6 9 C5.67 9.66 5.34 10.32 5 11 C2 9 2 9 1.26953125 6.8359375 C1.11871094 6.02382813 0.96789062 5.21171875 0.8125 4.375 C0.65394531 3.55773437 0.49539063 2.74046875 0.33203125 1.8984375 C0.22246094 1.27195312 0.11289062 0.64546875 0 0 Z " fill="#D6D6D4" transform="translate(376,418)"/>
<path d="M0 0 C1.80125336 2.70188004 3.00243753 4.93057703 4 8 C3.67 8.99 3.34 9.98 3 11 C0.50875735 8.83370204 -0.59924482 7.30623023 -1 4 C-0.5625 1.75 -0.5625 1.75 0 0 Z " fill="#D9D9D7" transform="translate(133,544)"/>
<path d="M0 0 C0.66 0.99 1.32 1.98 2 3 C0.02 5.97 -1.96 8.94 -4 12 C-4.33 11.34 -4.66 10.68 -5 10 C-4.00390625 7.6171875 -4.00390625 7.6171875 -2.5625 4.875 C-1.85287109 3.50988281 -1.85287109 3.50988281 -1.12890625 2.1171875 C-0.75636719 1.41851563 -0.38382812 0.71984375 0 0 Z " fill="#CDCDCA" transform="translate(357,555)"/>
<path d="M0 0 C1.5 1.0625 1.5 1.0625 3 3 C3.1875 6.6875 3.1875 6.6875 3 10 C1.00902154 7.01353231 0.05875074 4.40312738 -1 1 C-0.67 0.67 -0.34 0.34 0 0 Z " fill="#DFDFDD" transform="translate(356,442)"/>
<path d="M0 0 C1.9375 0.8125 1.9375 0.8125 4 2 C4.33 2.99 4.66 3.98 5 5 C3.35 5.33 1.7 5.66 0 6 C0 4.02 0 2.04 0 0 Z " fill="#E6E5E2" transform="translate(618,432)"/>
<path d="M0 0 C0.99 0.33 1.98 0.66 3 1 C-1.75 5.875 -1.75 5.875 -4 7 C-2.79618552 4.50638429 -1.54571278 2.31856917 0 0 Z " fill="#D8D9D8" transform="translate(345,577)"/>
<path d="M0 0 C1.39195915 4.17587745 -0.17676781 6.13474776 -2 10 C-4 6.25 -4 6.25 -4 4 C-3.01 4 -2.02 4 -1 4 C-0.67 2.68 -0.34 1.36 0 0 Z " fill="#D6D6D3" transform="translate(878,509)"/>
<path d="M0 0 C0.66 0.33 1.32 0.66 2 1 C1.01 4.3 0.02 7.6 -1 11 C-2.41687119 6.74938644 -1.19320039 4.28148375 0 0 Z " fill="#D8D8D6" transform="translate(886,485)"/>
<path d="M0 0 C-3.44450737 2.29633824 -5.93812283 2.54016485 -10 3 C-9.01 2.67 -8.02 2.34 -7 2 C-7 1.34 -7 0.68 -7 0 C-4.3333581 -1.33332095 -2.83319697 -0.67102033 0 0 Z " fill="#D6D6D4" transform="translate(291,655)"/>
<path d="M0 0 C1.39195915 4.17587745 -0.17676781 6.13474776 -2 10 C-3.0625 8.125 -3.0625 8.125 -4 6 C-3.67 5.34 -3.34 4.68 -3 4 C-2.34 4 -1.68 4 -1 4 C-0.67 2.68 -0.34 1.36 0 0 Z " fill="#D6D6D3" transform="translate(883,496)"/>
<path d="M0 0 C1 2 1 2 0.44140625 3.9453125 C0.15136719 4.66460937 -0.13867188 5.38390625 -0.4375 6.125 C-0.72496094 6.84945313 -1.01242187 7.57390625 -1.30859375 8.3203125 C-1.53675781 8.87460937 -1.76492188 9.42890625 -2 10 C-3.16909807 6.49270578 -2.85056945 4.55692677 -2 1 C-1.34 0.67 -0.68 0.34 0 0 Z " fill="#D4D3D1" transform="translate(897,461)"/>
<path d="M0 0 C1.1875 1.6875 1.1875 1.6875 2 4 C0.625 6.75 0.625 6.75 -1 9 C-2.25541557 5.23375329 -1.37061958 3.62811066 0 0 Z " fill="#DADAD7" transform="translate(867,430)"/>
<path d="M0 0 C2.0625 1.75 2.0625 1.75 4 4 C3.75 6.25 3.75 6.25 3 8 C0.37613513 4.93882432 0 4.26826873 0 0 Z " fill="#E2E2E0" transform="translate(344,422)"/>
<path d="M0 0 C0.33 0 0.66 0 1 0 C1.33 2.31 1.66 4.62 2 7 C2.66 7 3.32 7 4 7 C4 7.66 4 8.32 4 9 C2.68 9 1.36 9 0 9 C0 6.03 0 3.06 0 0 Z " fill="#EFF0ED" transform="translate(764,428)"/>
<path d="M0 0 C0.33 0 0.66 0 1 0 C1 3.63 1 7.26 1 11 C0.67 11 0.34 11 0 11 C0 7.37 0 3.74 0 0 Z " fill="#F3F3F1" transform="translate(564,525)"/>
<path d="M0 0 C2.64 0 5.28 0 8 0 C8 0.33 8 0.66 8 1 C5.36 1 2.72 1 0 1 C0 0.67 0 0.34 0 0 Z " fill="#F1F0ED" transform="translate(264,606)"/>
<path d="M0 0 C2.31 0 4.62 0 7 0 C6.34 0.66 5.68 1.32 5 2 C2.375 1.625 2.375 1.625 0 1 C0 0.67 0 0.34 0 0 Z " fill="#F3F3F0" transform="translate(591,525)"/>
<path d="M0 0 C2.31 0 4.62 0 7 0 C7 0.33 7 0.66 7 1 C4.69 1 2.38 1 0 1 C0 0.67 0 0.34 0 0 Z " fill="#F1F0EC" transform="translate(280,606)"/>
<path d="M0 0 C0.33 0 0.66 0 1 0 C1 2.31 1 4.62 1 7 C0.67 7 0.34 7 0 7 C0 4.69 0 2.38 0 0 Z " fill="#F3F3F1" transform="translate(564,537)"/>
<path d="M0 0 C1.98 0 3.96 0 6 0 C5.67 0.66 5.34 1.32 5 2 C3.35 1.67 1.7 1.34 0 1 C0 0.67 0 0.34 0 0 Z " fill="#F4F4F1" transform="translate(575,525)"/>
<path d="M0 0 C0.33 0 0.66 0 1 0 C1 2.31 1 4.62 1 7 C0.67 7 0.34 7 0 7 C0 4.69 0 2.38 0 0 Z " fill="#F5F4F1" transform="translate(564,449)"/>
<path d="M0 0 C0.33 0 0.66 0 1 0 C1 2.31 1 4.62 1 7 C0.67 7 0.34 7 0 7 C0 4.69 0 2.38 0 0 Z " fill="#F5F4F2" transform="translate(564,441)"/>
<path d="M0 0 C1.98 0 3.96 0 6 0 C6 0.33 6 0.66 6 1 C4.02 1 2.04 1 0 1 C0 0.67 0 0.34 0 0 Z " fill="#F2F3F1" transform="translate(247,629)"/>
<path d="M0 0 C0.33 0 0.66 0 1 0 C1 1.98 1 3.96 1 6 C0.67 6 0.34 6 0 6 C0 4.02 0 2.04 0 0 Z " fill="#F1F1EE" transform="translate(444,538)"/>
<path d="M0 0 C0.33 0 0.66 0 1 0 C1 1.98 1 3.96 1 6 C0.67 6 0.34 6 0 6 C0 4.02 0 2.04 0 0 Z " fill="#F1F1EF" transform="translate(444,529)"/>
<path d="M0 0 C0.33 0 0.66 0 1 0 C1 1.98 1 3.96 1 6 C0.67 6 0.34 6 0 6 C0 4.02 0 2.04 0 0 Z " fill="#F1F1EF" transform="translate(444,489)"/>
<path d="M0 0 C1.98 0 3.96 0 6 0 C6 0.33 6 0.66 6 1 C4.02 1 2.04 1 0 1 C0 0.67 0 0.34 0 0 Z " fill="#F4F4F2" transform="translate(248,374)"/>
<path d="M0 0 C1.32 0.33 2.64 0.66 4 1 C2.68 1 1.36 1 0 1 C0 0.67 0 0.34 0 0 Z " fill="#F3F2F0" transform="translate(243,374)"/>
<path d="M0 0 C0.33 0 0.66 0 1 0 C1 1.65 1 3.3 1 5 C0.67 5 0.34 5 0 5 C0 3.35 0 1.7 0 0 Z " fill="#F2F2EF" transform="translate(564,555)"/>
<path d="M0 0 C0.33 0 0.66 0 1 0 C1 1.65 1 3.3 1 5 C0.67 5 0.34 5 0 5 C0 3.35 0 1.7 0 0 Z " fill="#F2F3EF" transform="translate(825,532)"/>
<path d="M0 0 C1.98 0.99 1.98 0.99 4 2 C2.68 2 1.36 2 0 2 C0 1.34 0 0.68 0 0 Z " fill="#F6F7F4" transform="translate(564,483)"/>
<path d="M0 0 C0.33 0 0.66 0 1 0 C1 1.65 1 3.3 1 5 C0.67 5 0.34 5 0 5 C0 3.35 0 1.7 0 0 Z " fill="#F5F5F3" transform="translate(564,475)"/>
<path d="M0 0 C0.66 1.32 1.32 2.64 2 4 C1.34 3.67 0.68 3.34 0 3 C0 2.01 0 1.02 0 0 Z " fill="#F4F4F2" transform="translate(803,476)"/>
<path d="M0 0 C0.66 1.32 1.32 2.64 2 4 C1.34 3.67 0.68 3.34 0 3 C0 2.01 0 1.02 0 0 Z " fill="#F2F3EF" transform="translate(800,469)"/>
<path d="M0 0 C0.33 0 0.66 0 1 0 C1 1.65 1 3.3 1 5 C0.67 5 0.34 5 0 5 C0 3.35 0 1.7 0 0 Z " fill="#F4F4F2" transform="translate(564,467)"/>
<path d="M0 0 C0.33 0 0.66 0 1 0 C1 1.65 1 3.3 1 5 C0.67 5 0.34 5 0 5 C0 3.35 0 1.7 0 0 Z " fill="#F0F1EF" transform="translate(444,458)"/>
<path d="M0 0 C1.65 0 3.3 0 5 0 C5 0.33 5 0.66 5 1 C3.35 1 1.7 1 0 1 C0 0.67 0 0.34 0 0 Z " fill="#F4F4F0" transform="translate(675,439)"/>
<path d="M0 0 C0.33 0 0.66 0 1 0 C1 1.65 1 3.3 1 5 C0.67 5 0.34 5 0 5 C0 3.35 0 1.7 0 0 Z " fill="#EFEFEC" transform="translate(444,434)"/>
<path d="M0 0 C0.33 0 0.66 0 1 0 C1 1.65 1 3.3 1 5 C0.67 5 0.34 5 0 5 C0 3.35 0 1.7 0 0 Z " fill="#EDEDEA" transform="translate(764,411)"/>
<path d="M0 0 C4 1 4 1 4 1 Z " fill="#E3E3E1" transform="translate(852,611)"/>
<path d="M0 0 C4 1 4 1 4 1 Z " fill="#F1F0ED" transform="translate(259,606)"/>
<path d="M0 0 C4 1 4 1 4 1 Z " fill="#F0F0ED" transform="translate(243,606)"/>
<path d="M0 0 C4 1 4 1 4 1 Z " fill="#F0EFEB" transform="translate(227,606)"/>
<path d="M0 0 C0.99 0.495 0.99 0.495 2 1 C1.67 1.66 1.34 2.32 1 3 C0.67 2.01 0.34 1.02 0 0 Z " fill="#E9EAE8" transform="translate(129,604)"/>
<path d="M0 0 C1 4 1 4 1 4 Z " fill="#EDEEEB" transform="translate(564,588)"/>
<path d="M0 0 C1 4 1 4 1 4 Z " fill="#EFF0ED" transform="translate(564,580)"/>
<path d="M0 0 C1 4 1 4 1 4 Z " fill="#F0F0EE" transform="translate(564,572)"/>
<path d="M0 0 C1 4 1 4 1 4 Z " fill="#EFEFED" transform="translate(444,571)"/>
<path d="M0 0 C1 4 1 4 1 4 Z " fill="#E9E9E7" transform="translate(98,537)"/>
<path d="M0 0 C4 1 4 1 4 1 Z " fill="#F1F1EE" transform="translate(607,525)"/>
<path d="M0 0 C4 1 4 1 4 1 Z " fill="#F3F4F1" transform="translate(583,525)"/>
<path d="M0 0 C4 1 4 1 4 1 Z " fill="#F4F4F1" transform="translate(567,525)"/>
<path d="M0 0 C0 3 0 3 0 3 Z " fill="#F1F1EF" transform="translate(364,477)"/>
<path d="M0 0 C1 4 1 4 1 4 Z " fill="#F0F0EE" transform="translate(444,476)"/>
<path d="M0 0 C1 4 1 4 1 4 Z " fill="#F2F2EE" transform="translate(132,468)"/>
<path d="M0 0 C1 4 1 4 1 4 Z " fill="#F5F5F3" transform="translate(564,459)"/>
<path d="M0 0 C0.66 0.66 1.32 1.32 2 2 C1.01 2.495 1.01 2.495 0 3 C0 2.01 0 1.02 0 0 Z " fill="#F4F4F1" transform="translate(836,443)"/>
<path d="M0 0 C4 1 4 1 4 1 Z " fill="#EFEFEC" transform="translate(643,439)"/>
<path d="M0 0 C4 1 4 1 4 1 Z " fill="#F4F3F0" transform="translate(579,439)"/>
<path d="M0 0 C3 1 3 1 3 1 Z " fill="#E5E5E3" transform="translate(218,661)"/>
<path d="M0 0 C3 1 3 1 3 1 Z " fill="#E7E7E5" transform="translate(191,653)"/>
<path d="M0 0 C3 1 3 1 3 1 Z " fill="#F2F4F1" transform="translate(242,629)"/>
<path d="" fill="#E8E8E6" transform="translate(0,0)"/>
<path d="" fill="#EDEDEB" transform="translate(0,0)"/>
<path d="" fill="#EFEFED" transform="translate(0,0)"/>
<path d="M0 0 C0.99 0.495 0.99 0.495 2 1 C1.01 1.495 1.01 1.495 0 2 C0 1.34 0 0.68 0 0 Z " fill="#EFEEEC" transform="translate(390,558)"/>
<path d="" fill="#F2F2F0" transform="translate(0,0)"/>
<path d="" fill="#F0F1EE" transform="translate(0,0)"/>
<path d="" fill="#EFF0EE" transform="translate(0,0)"/>
<path d="" fill="#EBEBE9" transform="translate(0,0)"/>
<path d="M0 0 C3 1 3 1 3 1 Z " fill="#F1F2F0" transform="translate(599,525)"/>
<path d="" fill="#F1F1EF" transform="translate(0,0)"/>
<path d="" fill="#EFEFEB" transform="translate(0,0)"/>
<path d="" fill="#F2F2EF" transform="translate(0,0)"/>
<path d="" fill="#ECEDEA" transform="translate(0,0)"/>
<path d="" fill="#F1F1EE" transform="translate(0,0)"/>
<path d="" fill="#F1F1EF" transform="translate(0,0)"/>
<path d="M0 0 C3 1 3 1 3 1 Z " fill="#F5F6F2" transform="translate(579,484)"/>
<path d="" fill="#F4F3F0" transform="translate(0,0)"/>
<path d="M0 0 C3 1 3 1 3 1 Z " fill="#F3F4F2" transform="translate(259,476)"/>
<path d="" fill="#F2F2F0" transform="translate(0,0)"/>
<path d="" fill="#F0F1EE" transform="translate(0,0)"/>
<path d="" fill="#F4F4F1" transform="translate(0,0)"/>
<path d="" fill="#F2F2F0" transform="translate(0,0)"/>
<path d="M0 0 C0.33 0.66 0.66 1.32 1 2 C0.34 1.67 -0.32 1.34 -1 1 C-0.67 0.67 -0.34 0.34 0 0 Z " fill="#F2F2EF" transform="translate(797,461)"/>
<path d="" fill="#F1F0EE" transform="translate(0,0)"/>
<path d="" fill="#F1F0EE" transform="translate(0,0)"/>
<path d="" fill="#F0EFED" transform="translate(0,0)"/>
<path d="M0 0 C3 1 3 1 3 1 Z " fill="#F1F2EE" transform="translate(756,439)"/>
<path d="M0 0 C3 1 3 1 3 1 Z " fill="#F4F2F0" transform="translate(588,439)"/>
<path d="" fill="#EEEEEB" transform="translate(0,0)"/>
<path d="M0 0 C0.66 0.66 1.32 1.32 2 2 C1.34 2 0.68 2 0 2 C0 1.34 0 0.68 0 0 Z " fill="#F2F2EF" transform="translate(829,422)"/>
<path d="" fill="#EEEFED" transform="translate(0,0)"/>
<path d="" fill="#EDEDEB" transform="translate(0,0)"/>
<path d="M0 0 C0.66 0.66 1.32 1.32 2 2 C1.34 2 0.68 2 0 2 C0 1.34 0 0.68 0 0 Z " fill="#F2F1EF" transform="translate(338,419)"/>
<path d="" fill="#EBEBE9" transform="translate(0,0)"/>
<path d="" fill="#F1F1EF" transform="translate(0,0)"/>
<path d="M0 0 C0.66 0.66 1.32 1.32 2 2 C1.34 2 0.68 2 0 2 C0 1.34 0 0.68 0 0 Z " fill="#F2F1F1" transform="translate(328,408)"/>
<path d="" fill="#ECECEA" transform="translate(0,0)"/>
<path d="" fill="#E8E9E7" transform="translate(0,0)"/>
<path d="M0 0 C0.33 0.66 0.66 1.32 1 2 C0.34 1.67 -0.32 1.34 -1 1 C-0.67 0.67 -0.34 0.34 0 0 Z " fill="#F3F3F1" transform="translate(258,401)"/>
<path d="" fill="#EAEAE7" transform="translate(0,0)"/>
<path d="M0 0 C3 1 3 1 3 1 Z " fill="#E7E7E5" transform="translate(790,396)"/>
<path d="M0 0 C3 1 3 1 3 1 Z " fill="#EAECE9" transform="translate(652,396)"/>
<path d="M0 0 C3 1 3 1 3 1 Z " fill="#F1F0EE" transform="translate(210,380)"/>
<path d="M0 0 C3 1 3 1 3 1 Z " fill="#F3F3F1" transform="translate(259,375)"/>
<path d="M0 0 C3 1 3 1 3 1 Z " fill="#EBEAE9" transform="translate(212,344)"/>
<path d="M0 0 C3 1 3 1 3 1 Z " fill="#EAEAE8" transform="translate(252,340)"/>
<path d="M0 0 C2 1 2 1 2 1 Z " fill="#ECEAE7" transform="translate(260,663)"/>
<path d="M0 0 C2 1 2 1 2 1 Z " fill="#EBECE9" transform="translate(235,663)"/>
<path d="M0 0 C2 1 2 1 2 1 Z " fill="#E7E6E5" transform="translate(268,662)"/>
<path d="M0 0 C2 1 2 1 2 1 Z " fill="#E7E8E6" transform="translate(227,662)"/>
<path d="M0 0 C2 1 2 1 2 1 Z " fill="#E4E5E2" transform="translate(189,652)"/>
<path d="M0 0 C2 1 2 1 2 1 Z " fill="#EBE9E8" transform="translate(312,647)"/>
<path d="M0 0 C2 1 2 1 2 1 Z " fill="#E9E9E6" transform="translate(180,647)"/>
<path d="M0 0 C2 1 2 1 2 1 Z " fill="#F3F2F0" transform="translate(281,624)"/>
<path d="" fill="#F2F1EF" transform="translate(0,0)"/>
<path d="M0 0 C2 1 2 1 2 1 Z " fill="#DFE0DE" transform="translate(830,611)"/>
<path d="M0 0 C2 1 2 1 2 1 Z " fill="#EBEAE8" transform="translate(710,611)"/>
<path d="M0 0 C2 1 2 1 2 1 Z " fill="#E9E8E6" transform="translate(685,611)"/>
<path d="M0 0 C2 1 2 1 2 1 Z " fill="#E7E7E5" transform="translate(681,611)"/>
<path d="M0 0 C2 1 2 1 2 1 Z " fill="#E8E9E6" transform="translate(486,611)"/>
<path d="M0 0 C2 1 2 1 2 1 Z " fill="#EBEBE8" transform="translate(470,611)"/>
<path d="M0 0 C2 1 2 1 2 1 Z " fill="#F0F1ED" transform="translate(275,606)"/>
<path d="M0 0 C2 1 2 1 2 1 Z " fill="#F1F2EF" transform="translate(256,606)"/>
<path d="M0 0 C2 1 2 1 2 1 Z " fill="#F2F0EE" transform="translate(251,606)"/>
<path d="M0 0 C2 1 2 1 2 1 Z " fill="#F2F2EF" transform="translate(248,606)"/>
<path d="M0 0 C2 1 2 1 2 1 Z " fill="#F2F2EE" transform="translate(240,606)"/>
<path d="M0 0 C2 1 2 1 2 1 Z " fill="#F1F1EE" transform="translate(235,606)"/>
<path d="M0 0 C2 1 2 1 2 1 Z " fill="#F0F0ED" transform="translate(224,606)"/>
<path d="M0 0 C2 1 2 1 2 1 Z " fill="#F0EFEC" transform="translate(219,606)"/>
<path d="" fill="#EAECE9" transform="translate(0,0)"/>
<path d="" fill="#EBEBE8" transform="translate(0,0)"/>
<path d="" fill="#E8E9E7" transform="translate(0,0)"/>
<path d="" fill="#EFF1EF" transform="translate(0,0)"/>
<path d="" fill="#EFEFEC" transform="translate(0,0)"/>
<path d="" fill="#F1F1ED" transform="translate(0,0)"/>
<path d="" fill="#EFF0ED" transform="translate(0,0)"/>
<path d="" fill="#F0F0ED" transform="translate(0,0)"/>
<path d="" fill="#E8E9E6" transform="translate(0,0)"/>
<path d="" fill="#F2F2EF" transform="translate(0,0)"/>
<path d="" fill="#EBEBE9" transform="translate(0,0)"/>
<path d="" fill="#F1F2EE" transform="translate(0,0)"/>
<path d="" fill="#E9E9E6" transform="translate(0,0)"/>
<path d="" fill="#F5F3F3" transform="translate(0,0)"/>
<path d="" fill="#F3F3F2" transform="translate(0,0)"/>
<path d="" fill="#F1F2EF" transform="translate(0,0)"/>
<path d="" fill="#F1F2F0" transform="translate(0,0)"/>
<path d="" fill="#F2F3EF" transform="translate(0,0)"/>
<path d="" fill="#F3F3EF" transform="translate(0,0)"/>
<path d="" fill="#F1F2EE" transform="translate(0,0)"/>
<path d="" fill="#F1EFEE" transform="translate(0,0)"/>
<path d="" fill="#F1F2EE" transform="translate(0,0)"/>
<path d="" fill="#F2F3EF" transform="translate(0,0)"/>
<path d="" fill="#F2F3EF" transform="translate(0,0)"/>
<path d="" fill="#F2F2EE" transform="translate(0,0)"/>
<path d="M0 0 C2 1 2 1 2 1 Z " fill="#F3F5F4" transform="translate(583,484)"/>
<path d="" fill="#EFEFEC" transform="translate(0,0)"/>
<path d="M0 0 C2 1 2 1 2 1 Z " fill="#F2F4F0" transform="translate(800,477)"/>
<path d="" fill="#F5F5F2" transform="translate(0,0)"/>
<path d="" fill="#F3F2F0" transform="translate(0,0)"/>
<path d="" fill="#F4F4F1" transform="translate(0,0)"/>
<path d="" fill="#ECECE9" transform="translate(0,0)"/>
<path d="" fill="#F4F4F2" transform="translate(0,0)"/>
<path d="" fill="#F0F1EF" transform="translate(0,0)"/>
<path d="M0 0 C2 1 2 1 2 1 Z " fill="#F3F2F1" transform="translate(260,462)"/>
<path d="" fill="#F2F3F1" transform="translate(0,0)"/>
<path d="M0 0 C2 1 2 1 2 1 Z " fill="#F2F2EF" transform="translate(227,459)"/>
<path d="" fill="#F4F4F1" transform="translate(0,0)"/>
<path d="" fill="#F2F3EF" transform="translate(0,0)"/>
<path d="" fill="#F3F3F1" transform="translate(0,0)"/>
<path d="" fill="#F1F1EF" transform="translate(0,0)"/>
<path d="" fill="#F4F5F1" transform="translate(0,0)"/>
<path d="M0 0 C2 1 2 1 2 1 Z " fill="#F4F4F1" transform="translate(724,439)"/>
<path d="M0 0 C2 1 2 1 2 1 Z " fill="#F3F2EF" transform="translate(660,439)"/>
<path d="M0 0 C2 1 2 1 2 1 Z " fill="#F3F2EE" transform="translate(652,439)"/>
<path d="" fill="#EFEFED" transform="translate(0,0)"/>
<path d="M0 0 C2 1 2 1 2 1 Z " fill="#F3F3EF" transform="translate(604,439)"/>
<path d="M0 0 C2 1 2 1 2 1 Z " fill="#F2F2EE" transform="translate(596,439)"/>
<path d="" fill="#F2F2EF" transform="translate(0,0)"/>
<path d="" fill="#F2F2F1" transform="translate(0,0)"/>
<path d="" fill="#EEEEEC" transform="translate(0,0)"/>
<path d="" fill="#F2F1EE" transform="translate(0,0)"/>
<path d="M0 0 C2 1 2 1 2 1 Z " fill="#F3F4F2" transform="translate(233,403)"/>
<path d="M0 0 C2 1 2 1 2 1 Z " fill="#F2F3F1" transform="translate(254,401)"/>
<path d="M0 0 C2 1 2 1 2 1 Z " fill="#E2E4E0" transform="translate(884,396)"/>
<path d="M0 0 C2 1 2 1 2 1 Z " fill="#E6E5E4" transform="translate(798,396)"/>
<path d="M0 0 C2 1 2 1 2 1 Z " fill="#EAEAE7" transform="translate(644,396)"/>
<path d="M0 0 C2 1 2 1 2 1 Z " fill="#E9EBE8" transform="translate(604,396)"/>
<path d="M0 0 C2 1 2 1 2 1 Z " fill="#ECECEA" transform="translate(548,396)"/>
<path d="M0 0 C2 1 2 1 2 1 Z " fill="#EAEBEA" transform="translate(532,396)"/>
<path d="M0 0 C2 1 2 1 2 1 Z " fill="#EFEFED" transform="translate(358,391)"/>
<path d="" fill="#EFEFEC" transform="translate(0,0)"/>
<path d="M0 0 C2 1 2 1 2 1 Z " fill="#F1F1EE" transform="translate(286,382)"/>
<path d="M0 0 C2 1 2 1 2 1 Z " fill="#F3F1EF" transform="translate(281,380)"/>
<path d="" fill="#F3F2F0" transform="translate(0,0)"/>
<path d="M0 0 C2 1 2 1 2 1 Z " fill="#F0F0ED" transform="translate(214,379)"/>
<path d="M0 0 C2 1 2 1 2 1 Z " fill="#F3F4F1" transform="translate(256,375)"/>
<path d="M0 0 C2 1 2 1 2 1 Z " fill="#EEEFEE" transform="translate(278,344)"/>
<path d="" fill="#E9E8E8" transform="translate(0,0)"/>
<path d="M0 0 C2 1 2 1 2 1 Z " fill="#E8E9E8" transform="translate(244,340)"/>
<path d="" fill="#3D3E3C" transform="translate(0,0)"/>
<path d="" fill="#444543" transform="translate(0,0)"/>
<path d="" fill="#403E3F" transform="translate(0,0)"/>
<path d="" fill="#434142" transform="translate(0,0)"/>
<path d="" fill="#444344" transform="translate(0,0)"/>
<path d="" fill="#454544" transform="translate(0,0)"/>
<path d="" fill="#2C2D2A" transform="translate(0,0)"/>
<path d="" fill="#3A3A39" transform="translate(0,0)"/>
<path d="" fill="#464543" transform="translate(0,0)"/>
<path d="" fill="#434343" transform="translate(0,0)"/>
<path d="" fill="#464746" transform="translate(0,0)"/>
<path d="" fill="#3C3D3B" transform="translate(0,0)"/>
<path d="" fill="#444544" transform="translate(0,0)"/>
<path d="" fill="#343433" transform="translate(0,0)"/>
<path d="" fill="#3A3B3A" transform="translate(0,0)"/>
<path d="" fill="#373635" transform="translate(0,0)"/>
<path d="" fill="#3E3E3C" transform="translate(0,0)"/>
<path d="" fill="#474748" transform="translate(0,0)"/>
<path d="" fill="#4B4B48" transform="translate(0,0)"/>
<path d="" fill="#484A49" transform="translate(0,0)"/>
<path d="" fill="#4A4949" transform="translate(0,0)"/>
<path d="" fill="#484B49" transform="translate(0,0)"/>
<path d="" fill="#4A4B4B" transform="translate(0,0)"/>
<path d="" fill="#303130" transform="translate(0,0)"/>
<path d="" fill="#363536" transform="translate(0,0)"/>
<path d="" fill="#40413E" transform="translate(0,0)"/>
<path d="" fill="#4A4B4B" transform="translate(0,0)"/>
<path d="" fill="#4F4F4B" transform="translate(0,0)"/>
<path d="" fill="#505151" transform="translate(0,0)"/>
<path d="" fill="#515250" transform="translate(0,0)"/>
<path d="" fill="#3A3A39" transform="translate(0,0)"/>
<path d="" fill="#3B3C3A" transform="translate(0,0)"/>
<path d="" fill="#434141" transform="translate(0,0)"/>
<path d="" fill="#4E4F4C" transform="translate(0,0)"/>
<path d="" fill="#525552" transform="translate(0,0)"/>
<path d="" fill="#535353" transform="translate(0,0)"/>
<path d="" fill="#4C4E4B" transform="translate(0,0)"/>
<path d="" fill="#464646" transform="translate(0,0)"/>
<path d="" fill="#555453" transform="translate(0,0)"/>
<path d="" fill="#595857" transform="translate(0,0)"/>
<path d="" fill="#535453" transform="translate(0,0)"/>
<path d="" fill="#474846" transform="translate(0,0)"/>
<path d="" fill="#3A3A3A" transform="translate(0,0)"/>
<path d="" fill="#565455" transform="translate(0,0)"/>
<path d="" fill="#424241" transform="translate(0,0)"/>
<path d="" fill="#61605E" transform="translate(0,0)"/>
<path d="" fill="#666565" transform="translate(0,0)"/>
<path d="" fill="#6E6F6E" transform="translate(0,0)"/>
<path d="" fill="#70706D" transform="translate(0,0)"/>
<path d="" fill="#707270" transform="translate(0,0)"/>
<path d="" fill="#78797A" transform="translate(0,0)"/>
<path d="" fill="#EDEDEC" transform="translate(0,0)"/>
<path d="" fill="#E9E9E6" transform="translate(0,0)"/>
<path d="" fill="#E5E5E1" transform="translate(0,0)"/>
<path d="" fill="#E6E6E3" transform="translate(0,0)"/>
<path d="" fill="#E4E5E3" transform="translate(0,0)"/>
<path d="" fill="#E6E5E3" transform="translate(0,0)"/>
<path d="" fill="#E4E7E3" transform="translate(0,0)"/>
<path d="" fill="#E7E9E5" transform="translate(0,0)"/>
<path d="" fill="#E5E5E2" transform="translate(0,0)"/>
<path d="" fill="#EAEAE7" transform="translate(0,0)"/>
<path d="" fill="#EAECEA" transform="translate(0,0)"/>
<path d="" fill="#E6E7E4" transform="translate(0,0)"/>
<path d="" fill="#818282" transform="translate(0,0)"/>
<path d="" fill="#EAEBE8" transform="translate(0,0)"/>
<path d="" fill="#EBE9E6" transform="translate(0,0)"/>
<path d="" fill="#EBEBE8" transform="translate(0,0)"/>
<path d="" fill="#EAE8E7" transform="translate(0,0)"/>
<path d="" fill="#F4F7F3" transform="translate(0,0)"/>
<path d="" fill="#E9EBEA" transform="translate(0,0)"/>
<path d="" fill="#F5F3EF" transform="translate(0,0)"/>
<path d="" fill="#F3F3F1" transform="translate(0,0)"/>
<path d="" fill="#F3F2F1" transform="translate(0,0)"/>
<path d="" fill="#F3F2F1" transform="translate(0,0)"/>
<path d="" fill="#F2F3F1" transform="translate(0,0)"/>
<path d="" fill="#F4F4F1" transform="translate(0,0)"/>
<path d="" fill="#F0F1ED" transform="translate(0,0)"/>
<path d="" fill="#858484" transform="translate(0,0)"/>
<path d="" fill="#ECEDE9" transform="translate(0,0)"/>
<path d="" fill="#F5F6F2" transform="translate(0,0)"/>
<path d="" fill="#EAEBE8" transform="translate(0,0)"/>
<path d="" fill="#F3F2F0" transform="translate(0,0)"/>
<path d="" fill="#E9EAE8" transform="translate(0,0)"/>
<path d="" fill="#DCDBDA" transform="translate(0,0)"/>
<path d="" fill="#E7E7E5" transform="translate(0,0)"/>
<path d="" fill="#DBDBDA" transform="translate(0,0)"/>
<path d="" fill="#E8E7E4" transform="translate(0,0)"/>
<path d="" fill="#DBDCD9" transform="translate(0,0)"/>
<path d="" fill="#E2E1DE" transform="translate(0,0)"/>
<path d="" fill="#E3E3E1" transform="translate(0,0)"/>
<path d="" fill="#E4E4E2" transform="translate(0,0)"/>
<path d="" fill="#E4E3E3" transform="translate(0,0)"/>
<path d="" fill="#DDDFDB" transform="translate(0,0)"/>
<path d="" fill="#E2E3E0" transform="translate(0,0)"/>
<path d="" fill="#E9E8E5" transform="translate(0,0)"/>
<path d="" fill="#EAEAE5" transform="translate(0,0)"/>
<path d="" fill="#E9E9E7" transform="translate(0,0)"/>
<path d="" fill="#ECEAE8" transform="translate(0,0)"/>
<path d="" fill="#E9EBEA" transform="translate(0,0)"/>
<path d="" fill="#EAEAE7" transform="translate(0,0)"/>
<path d="" fill="#E9E8E6" transform="translate(0,0)"/>
<path d="" fill="#ECEBE9" transform="translate(0,0)"/>
<path d="" fill="#F5F3F0" transform="translate(0,0)"/>
<path d="" fill="#F1F0EE" transform="translate(0,0)"/>
<path d="" fill="#EEEFEC" transform="translate(0,0)"/>
<path d="" fill="#E2E3E1" transform="translate(0,0)"/>
<path d="" fill="#F1F0EF" transform="translate(0,0)"/>
<path d="" fill="#EAEBE8" transform="translate(0,0)"/>
<path d="" fill="#D6D5D3" transform="translate(0,0)"/>
<path d="" fill="#E3E3E0" transform="translate(0,0)"/>
<path d="" fill="#EFEFEC" transform="translate(0,0)"/>
<path d="" fill="#E8E9E6" transform="translate(0,0)"/>
<path d="" fill="#E6E6E4" transform="translate(0,0)"/>
<path d="" fill="#F0F1EC" transform="translate(0,0)"/>
<path d="" fill="#F0F1ED" transform="translate(0,0)"/>
<path d="" fill="#F1F1EE" transform="translate(0,0)"/>
<path d="" fill="#F0F0EB" transform="translate(0,0)"/>
<path d="" fill="#EFF0ED" transform="translate(0,0)"/>
<path d="" fill="#F0F0EC" transform="translate(0,0)"/>
<path d="" fill="#EFEFEF" transform="translate(0,0)"/>
<path d="" fill="#F1EFED" transform="translate(0,0)"/>
<path d="" fill="#EBEBE9" transform="translate(0,0)"/>
<path d="" fill="#E9EBE8" transform="translate(0,0)"/>
<path d="" fill="#E0E1DC" transform="translate(0,0)"/>
<path d="" fill="#E7E8E5" transform="translate(0,0)"/>
<path d="" fill="#E9E8E5" transform="translate(0,0)"/>
<path d="" fill="#F2F1EE" transform="translate(0,0)"/>
<path d="" fill="#EAE7E5" transform="translate(0,0)"/>
<path d="" fill="#E2E4E1" transform="translate(0,0)"/>
<path d="" fill="#EAE8E6" transform="translate(0,0)"/>
<path d="" fill="#ECEDEA" transform="translate(0,0)"/>
<path d="" fill="#E8E8E5" transform="translate(0,0)"/>
<path d="" fill="#F0EDEB" transform="translate(0,0)"/>
<path d="" fill="#EFEFED" transform="translate(0,0)"/>
<path d="" fill="#F0F1ED" transform="translate(0,0)"/>
<path d="" fill="#F2F1F1" transform="translate(0,0)"/>
<path d="" fill="#E9E9E7" transform="translate(0,0)"/>
<path d="" fill="#EFEFEC" transform="translate(0,0)"/>
<path d="" fill="#EFEFEC" transform="translate(0,0)"/>
<path d="" fill="#F1F2EF" transform="translate(0,0)"/>
<path d="" fill="#EFF1EE" transform="translate(0,0)"/>
<path d="" fill="#F1F1EE" transform="translate(0,0)"/>
<path d="" fill="#F3F5F1" transform="translate(0,0)"/>
<path d="" fill="#E8E9E8" transform="translate(0,0)"/>
<path d="" fill="#F4F3F1" transform="translate(0,0)"/>
<path d="" fill="#F3F2F0" transform="translate(0,0)"/>
<path d="" fill="#F1F3F0" transform="translate(0,0)"/>
<path d="" fill="#E7E7E6" transform="translate(0,0)"/>
<path d="" fill="#F0F0ED" transform="translate(0,0)"/>
<path d="" fill="#F4F4F1" transform="translate(0,0)"/>
<path d="" fill="#EAE9E5" transform="translate(0,0)"/>
<path d="" fill="#E6E6E3" transform="translate(0,0)"/>
<path d="" fill="#F4F2F1" transform="translate(0,0)"/>
<path d="" fill="#F3F2F0" transform="translate(0,0)"/>
<path d="" fill="#F4F3F1" transform="translate(0,0)"/>
<path d="" fill="#F1F1EF" transform="translate(0,0)"/>
<path d="" fill="#F1F0ED" transform="translate(0,0)"/>
<path d="" fill="#F2F2F0" transform="translate(0,0)"/>
<path d="" fill="#F3F2F1" transform="translate(0,0)"/>
<path d="" fill="#F1F0EE" transform="translate(0,0)"/>
<path d="" fill="#F6F4F2" transform="translate(0,0)"/>
<path d="" fill="#F1F2EE" transform="translate(0,0)"/>
<path d="" fill="#E7E7E7" transform="translate(0,0)"/>
<path d="" fill="#EAEDE9" transform="translate(0,0)"/>
<path d="" fill="#F0F1ED" transform="translate(0,0)"/>
<path d="" fill="#EFEFED" transform="translate(0,0)"/>
<path d="" fill="#F0EFED" transform="translate(0,0)"/>
<path d="" fill="#F2F2EF" transform="translate(0,0)"/>
<path d="" fill="#EBE9E9" transform="translate(0,0)"/>
<path d="" fill="#EAEAE6" transform="translate(0,0)"/>
<path d="" fill="#F1EFED" transform="translate(0,0)"/>
<path d="" fill="#F2F2EF" transform="translate(0,0)"/>
<path d="" fill="#F1F1EE" transform="translate(0,0)"/>
<path d="" fill="#EFF1EF" transform="translate(0,0)"/>
<path d="" fill="#F0EEED" transform="translate(0,0)"/>
<path d="" fill="#F1F3F0" transform="translate(0,0)"/>
<path d="" fill="#F1F2EE" transform="translate(0,0)"/>
<path d="" fill="#F1EFEE" transform="translate(0,0)"/>
<path d="" fill="#F0F0EF" transform="translate(0,0)"/>
<path d="" fill="#F0F2EF" transform="translate(0,0)"/>
<path d="" fill="#F3F1F0" transform="translate(0,0)"/>
<path d="" fill="#F3F4F1" transform="translate(0,0)"/>
<path d="" fill="#F1F1F0" transform="translate(0,0)"/>
<path d="" fill="#F2F3F0" transform="translate(0,0)"/>
<path d="" fill="#F1F1F1" transform="translate(0,0)"/>
<path d="" fill="#ECECE9" transform="translate(0,0)"/>
<path d="" fill="#F2F3F1" transform="translate(0,0)"/>
<path d="" fill="#E8EAE9" transform="translate(0,0)"/>
<path d="" fill="#F1F2F0" transform="translate(0,0)"/>
<path d="" fill="#F3F1F0" transform="translate(0,0)"/>
<path d="" fill="#EFEEEA" transform="translate(0,0)"/>
<path d="" fill="#EAEAE7" transform="translate(0,0)"/>
<path d="" fill="#E9E9E6" transform="translate(0,0)"/>
<path d="" fill="#F3F3F0" transform="translate(0,0)"/>
<path d="" fill="#F1F0ED" transform="translate(0,0)"/>
<path d="" fill="#F2F2EF" transform="translate(0,0)"/>
<path d="" fill="#F1F2F1" transform="translate(0,0)"/>
<path d="" fill="#E7E8E5" transform="translate(0,0)"/>
<path d="" fill="#F2F2F0" transform="translate(0,0)"/>
<path d="" fill="#F3F2EF" transform="translate(0,0)"/>
<path d="" fill="#EFEFEC" transform="translate(0,0)"/>
<path d="" fill="#EBECE8" transform="translate(0,0)"/>
<path d="" fill="#F0F1EE" transform="translate(0,0)"/>
<path d="" fill="#F3F4F1" transform="translate(0,0)"/>
<path d="" fill="#F5F3F1" transform="translate(0,0)"/>
<path d="" fill="#EFF1EE" transform="translate(0,0)"/>
<path d="" fill="#F0F1EF" transform="translate(0,0)"/>
<path d="" fill="#F3F1F0" transform="translate(0,0)"/>
<path d="" fill="#EBECE8" transform="translate(0,0)"/>
<path d="" fill="#F4F3F1" transform="translate(0,0)"/>
<path d="" fill="#F4F6F2" transform="translate(0,0)"/>
<path d="" fill="#F1F2EF" transform="translate(0,0)"/>
<path d="" fill="#EEEFEB" transform="translate(0,0)"/>
<path d="" fill="#EFF0EE" transform="translate(0,0)"/>
<path d="" fill="#F1F2EE" transform="translate(0,0)"/>
<path d="" fill="#F3F3F2" transform="translate(0,0)"/>
<path d="" fill="#F1F3F0" transform="translate(0,0)"/>
<path d="" fill="#F0EFEF" transform="translate(0,0)"/>
<path d="" fill="#EBEDEA" transform="translate(0,0)"/>
<path d="" fill="#F5F3F2" transform="translate(0,0)"/>
<path d="" fill="#EBEEEA" transform="translate(0,0)"/>
<path d="" fill="#EFF0EB" transform="translate(0,0)"/>
<path d="" fill="#F1F1EF" transform="translate(0,0)"/>
<path d="" fill="#F3F3F1" transform="translate(0,0)"/>
<path d="" fill="#F3F5F1" transform="translate(0,0)"/>
<path d="" fill="#F4F2F0" transform="translate(0,0)"/>
<path d="" fill="#F2F0F0" transform="translate(0,0)"/>
<path d="" fill="#F3F2F0" transform="translate(0,0)"/>
<path d="" fill="#EDEDEA" transform="translate(0,0)"/>
<path d="" fill="#F0EFED" transform="translate(0,0)"/>
<path d="" fill="#EAE9E7" transform="translate(0,0)"/>
<path d="" fill="#F0EFEC" transform="translate(0,0)"/>
<path d="" fill="#F3F1F0" transform="translate(0,0)"/>
<path d="" fill="#F2F2EF" transform="translate(0,0)"/>
<path d="" fill="#F3F1EE" transform="translate(0,0)"/>
<path d="" fill="#F1F1ED" transform="translate(0,0)"/>
<path d="" fill="#F0F1EE" transform="translate(0,0)"/>
<path d="" fill="#EFEFEB" transform="translate(0,0)"/>
<path d="" fill="#EFEFED" transform="translate(0,0)"/>
<path d="" fill="#F4F4F3" transform="translate(0,0)"/>
<path d="" fill="#F5F2F1" transform="translate(0,0)"/>
<path d="" fill="#F7F6F3" transform="translate(0,0)"/>
<path d="" fill="#F7F5F3" transform="translate(0,0)"/>
<path d="" fill="#F6F4F4" transform="translate(0,0)"/>
<path d="" fill="#F6F6F4" transform="translate(0,0)"/>
<path d="" fill="#F4F2F1" transform="translate(0,0)"/>
<path d="" fill="#F5F3F1" transform="translate(0,0)"/>
<path d="" fill="#F3F5F1" transform="translate(0,0)"/>
<path d="" fill="#F4F3F0" transform="translate(0,0)"/>
<path d="" fill="#F3F3F0" transform="translate(0,0)"/>
<path d="" fill="#F0F2EE" transform="translate(0,0)"/>
<path d="" fill="#EFF1EE" transform="translate(0,0)"/>
<path d="" fill="#F4F6F2" transform="translate(0,0)"/>
<path d="" fill="#F4F4F3" transform="translate(0,0)"/>
<path d="" fill="#F3F5F3" transform="translate(0,0)"/>
<path d="" fill="#F5F6F4" transform="translate(0,0)"/>
<path d="" fill="#F5F4F4" transform="translate(0,0)"/>
<path d="" fill="#F1F1EF" transform="translate(0,0)"/>
<path d="" fill="#EDEBE8" transform="translate(0,0)"/>
<path d="" fill="#F2F2F0" transform="translate(0,0)"/>
<path d="" fill="#F1F1EE" transform="translate(0,0)"/>
<path d="" fill="#F6F5F2" transform="translate(0,0)"/>
<path d="" fill="#F1EFEE" transform="translate(0,0)"/>
<path d="" fill="#EAEAE8" transform="translate(0,0)"/>
<path d="" fill="#F3F6F3" transform="translate(0,0)"/>
<path d="" fill="#F1F1F0" transform="translate(0,0)"/>
<path d="" fill="#F5F4F1" transform="translate(0,0)"/>
<path d="" fill="#F2F1F0" transform="translate(0,0)"/>
<path d="" fill="#EBECE9" transform="translate(0,0)"/>
<path d="" fill="#F1F2F0" transform="translate(0,0)"/>
<path d="" fill="#F4F4F2" transform="translate(0,0)"/>
<path d="" fill="#F3F3F1" transform="translate(0,0)"/>
<path d="" fill="#F3F2F1" transform="translate(0,0)"/>
<path d="" fill="#F3F3F2" transform="translate(0,0)"/>
<path d="" fill="#F3F4F1" transform="translate(0,0)"/>
<path d="" fill="#EAEAE7" transform="translate(0,0)"/>
<path d="" fill="#F3F4F0" transform="translate(0,0)"/>
<path d="" fill="#F2F1EF" transform="translate(0,0)"/>
<path d="" fill="#EDEDE9" transform="translate(0,0)"/>
<path d="" fill="#EBECE9" transform="translate(0,0)"/>
<path d="" fill="#F4F4F4" transform="translate(0,0)"/>
<path d="" fill="#EAE9E7" transform="translate(0,0)"/>
<path d="" fill="#F1F2F1" transform="translate(0,0)"/>
<path d="" fill="#F4F4F2" transform="translate(0,0)"/>
<path d="" fill="#EFF1EE" transform="translate(0,0)"/>
<path d="" fill="#F1F2F0" transform="translate(0,0)"/>
<path d="" fill="#F4F4F1" transform="translate(0,0)"/>
<path d="" fill="#F2F3EF" transform="translate(0,0)"/>
<path d="" fill="#F2F1EF" transform="translate(0,0)"/>
<path d="" fill="#F3F3F1" transform="translate(0,0)"/>
<path d="" fill="#F4F4F0" transform="translate(0,0)"/>
<path d="" fill="#F5F5F3" transform="translate(0,0)"/>
<path d="" fill="#F2F2F0" transform="translate(0,0)"/>
<path d="" fill="#E4E5E2" transform="translate(0,0)"/>
<path d="" fill="#F2F4F1" transform="translate(0,0)"/>
<path d="" fill="#F1F1EE" transform="translate(0,0)"/>
<path d="" fill="#F1F2F0" transform="translate(0,0)"/>
<path d="" fill="#F3F3F0" transform="translate(0,0)"/>
<path d="" fill="#ECEBE8" transform="translate(0,0)"/>
<path d="" fill="#EFEFED" transform="translate(0,0)"/>
<path d="" fill="#F1EFEC" transform="translate(0,0)"/>
<path d="" fill="#F1F2ED" transform="translate(0,0)"/>
<path d="" fill="#F4F3EF" transform="translate(0,0)"/>
<path d="" fill="#F4F3EF" transform="translate(0,0)"/>
<path d="" fill="#F5F5F2" transform="translate(0,0)"/>
<path d="" fill="#F4F6F1" transform="translate(0,0)"/>
<path d="" fill="#F4F3F0" transform="translate(0,0)"/>
<path d="" fill="#F5F4F2" transform="translate(0,0)"/>
<path d="" fill="#F3F2EF" transform="translate(0,0)"/>
<path d="" fill="#F0F1EE" transform="translate(0,0)"/>
<path d="" fill="#F4F5F1" transform="translate(0,0)"/>
<path d="" fill="#F3F1ED" transform="translate(0,0)"/>
<path d="" fill="#F4F5F0" transform="translate(0,0)"/>
<path d="" fill="#F4F3F1" transform="translate(0,0)"/>
<path d="" fill="#F5F3F1" transform="translate(0,0)"/>
<path d="" fill="#F6F5F1" transform="translate(0,0)"/>
<path d="" fill="#F5F6F2" transform="translate(0,0)"/>
<path d="" fill="#F0F0EE" transform="translate(0,0)"/>
<path d="" fill="#EEECE9" transform="translate(0,0)"/>
<path d="" fill="#EDEDE9" transform="translate(0,0)"/>
<path d="" fill="#F1F1EF" transform="translate(0,0)"/>
<path d="" fill="#EFEFEE" transform="translate(0,0)"/>
<path d="" fill="#F1F2EE" transform="translate(0,0)"/>
<path d="" fill="#F4F4F3" transform="translate(0,0)"/>
<path d="" fill="#F1F1EE" transform="translate(0,0)"/>
<path d="" fill="#F2F0F0" transform="translate(0,0)"/>
<path d="" fill="#F3F1F0" transform="translate(0,0)"/>
<path d="" fill="#F1F3F0" transform="translate(0,0)"/>
<path d="" fill="#F0F0EE" transform="translate(0,0)"/>
<path d="" fill="#F1F0F0" transform="translate(0,0)"/>
<path d="" fill="#EFF1EE" transform="translate(0,0)"/>
<path d="" fill="#F0F0EF" transform="translate(0,0)"/>
<path d="" fill="#F1F2F0" transform="translate(0,0)"/>
<path d="" fill="#F1F3F0" transform="translate(0,0)"/>
<path d="" fill="#EFF0EE" transform="translate(0,0)"/>
<path d="" fill="#F3F3F0" transform="translate(0,0)"/>
<path d="" fill="#EFF0ED" transform="translate(0,0)"/>
<path d="" fill="#E2E2E0" transform="translate(0,0)"/>
<path d="" fill="#F1EFEF" transform="translate(0,0)"/>
<path d="" fill="#F0EEEC" transform="translate(0,0)"/>
<path d="" fill="#F0F0ED" transform="translate(0,0)"/>
<path d="" fill="#F1F3F0" transform="translate(0,0)"/>
<path d="" fill="#F2F2F0" transform="translate(0,0)"/>
<path d="" fill="#E4E3E0" transform="translate(0,0)"/>
<path d="" fill="#F1F2EE" transform="translate(0,0)"/>
<path d="" fill="#EFF0EC" transform="translate(0,0)"/>
<path d="" fill="#F4F2F0" transform="translate(0,0)"/>
<path d="" fill="#EEEEEC" transform="translate(0,0)"/>
<path d="" fill="#F0F0EF" transform="translate(0,0)"/>
<path d="" fill="#ECEEEB" transform="translate(0,0)"/>
<path d="" fill="#F1F2EE" transform="translate(0,0)"/>
<path d="" fill="#F1F3F0" transform="translate(0,0)"/>
<path d="" fill="#F0F0ED" transform="translate(0,0)"/>
<path d="" fill="#EDECEA" transform="translate(0,0)"/>
<path d="" fill="#EFF0EC" transform="translate(0,0)"/>
<path d="" fill="#F0F0ED" transform="translate(0,0)"/>
<path d="" fill="#ECEBEB" transform="translate(0,0)"/>
<path d="" fill="#F4F3EF" transform="translate(0,0)"/>
<path d="" fill="#ECEBE8" transform="translate(0,0)"/>
<path d="" fill="#EDEEEA" transform="translate(0,0)"/>
<path d="" fill="#EFEFEB" transform="translate(0,0)"/>
<path d="" fill="#F4F5F2" transform="translate(0,0)"/>
<path d="" fill="#F3F4F1" transform="translate(0,0)"/>
<path d="" fill="#F0F0EB" transform="translate(0,0)"/>
<path d="" fill="#D2D1CF" transform="translate(0,0)"/>
<path d="" fill="#F2F3F0" transform="translate(0,0)"/>
<path d="" fill="#F5F4F1" transform="translate(0,0)"/>
<path d="" fill="#F4F3F1" transform="translate(0,0)"/>
<path d="" fill="#F2F5F2" transform="translate(0,0)"/>
<path d="" fill="#D9DBD8" transform="translate(0,0)"/>
<path d="" fill="#F3F3EF" transform="translate(0,0)"/>
<path d="" fill="#F2F2F0" transform="translate(0,0)"/>
<path d="" fill="#F1F2EF" transform="translate(0,0)"/>
<path d="" fill="#F4F3F1" transform="translate(0,0)"/>
<path d="" fill="#EDEDEB" transform="translate(0,0)"/>
<path d="" fill="#F2F2F0" transform="translate(0,0)"/>
<path d="" fill="#F4F5F2" transform="translate(0,0)"/>
<path d="" fill="#F3F0F0" transform="translate(0,0)"/>
<path d="" fill="#F2F2F0" transform="translate(0,0)"/>
<path d="" fill="#E9E7E7" transform="translate(0,0)"/>
<path d="" fill="#F1EFEF" transform="translate(0,0)"/>
<path d="" fill="#F1F1EE" transform="translate(0,0)"/>
<path d="" fill="#EFEFEB" transform="translate(0,0)"/>
<path d="" fill="#EAE9E7" transform="translate(0,0)"/>
<path d="" fill="#CBCDCB" transform="translate(0,0)"/>
<path d="" fill="#E3E5E1" transform="translate(0,0)"/>
<path d="" fill="#EFEFEE" transform="translate(0,0)"/>
<path d="" fill="#EBEAE8" transform="translate(0,0)"/>
<path d="" fill="#F2F3F0" transform="translate(0,0)"/>
<path d="" fill="#E2E3E0" transform="translate(0,0)"/>
<path d="" fill="#E2E4E1" transform="translate(0,0)"/>
<path d="" fill="#E2E4E0" transform="translate(0,0)"/>
<path d="" fill="#DFDFDE" transform="translate(0,0)"/>
<path d="" fill="#E7E7E5" transform="translate(0,0)"/>
<path d="" fill="#E5E5E3" transform="translate(0,0)"/>
<path d="" fill="#E8E7E7" transform="translate(0,0)"/>
<path d="" fill="#E6E9E6" transform="translate(0,0)"/>
<path d="" fill="#E9E8E6" transform="translate(0,0)"/>
<path d="" fill="#E6E8E4" transform="translate(0,0)"/>
<path d="" fill="#E9EBE9" transform="translate(0,0)"/>
<path d="" fill="#EAEBE9" transform="translate(0,0)"/>
<path d="" fill="#EBECE8" transform="translate(0,0)"/>
<path d="" fill="#ECECE9" transform="translate(0,0)"/>
<path d="" fill="#EDEDEA" transform="translate(0,0)"/>
<path d="" fill="#ECEDEB" transform="translate(0,0)"/>
<path d="" fill="#ECEDEB" transform="translate(0,0)"/>
<path d="" fill="#EDEDEC" transform="translate(0,0)"/>
<path d="" fill="#EAEBEA" transform="translate(0,0)"/>
<path d="" fill="#EDEDE9" transform="translate(0,0)"/>
<path d="" fill="#EDECE9" transform="translate(0,0)"/>
<path d="" fill="#EBEDEB" transform="translate(0,0)"/>
<path d="" fill="#E9E9E6" transform="translate(0,0)"/>
<path d="" fill="#EBEBE8" transform="translate(0,0)"/>
<path d="" fill="#EBECE9" transform="translate(0,0)"/>
<path d="" fill="#ECECEA" transform="translate(0,0)"/>
<path d="" fill="#ECEDEA" transform="translate(0,0)"/>
<path d="" fill="#EBECEB" transform="translate(0,0)"/>
<path d="" fill="#ECEEEA" transform="translate(0,0)"/>
<path d="" fill="#EBECE8" transform="translate(0,0)"/>
<path d="" fill="#E9ECE7" transform="translate(0,0)"/>
<path d="" fill="#E8EAE8" transform="translate(0,0)"/>
<path d="" fill="#E7EAE9" transform="translate(0,0)"/>
<path d="" fill="#E9EAE9" transform="translate(0,0)"/>
<path d="" fill="#E9EAE8" transform="translate(0,0)"/>
<path d="" fill="#EAE9E9" transform="translate(0,0)"/>
<path d="" fill="#E9E9E7" transform="translate(0,0)"/>
<path d="" fill="#F1EFF0" transform="translate(0,0)"/>
<path d="" fill="#F0EFEE" transform="translate(0,0)"/>
<path d="" fill="#F2F1EE" transform="translate(0,0)"/>
<path d="" fill="#EAECE7" transform="translate(0,0)"/>
<path d="" fill="#E9E9E5" transform="translate(0,0)"/>
<path d="" fill="#EFEFEB" transform="translate(0,0)"/>
<path d="" fill="#F1F0ED" transform="translate(0,0)"/>
<path d="" fill="#F4F2F1" transform="translate(0,0)"/>
<path d="" fill="#F0EFEE" transform="translate(0,0)"/>
<path d="" fill="#F1F1ED" transform="translate(0,0)"/>
<path d="" fill="#F0F0ED" transform="translate(0,0)"/>
<path d="" fill="#F4F3F1" transform="translate(0,0)"/>
<path d="" fill="#F1F1EF" transform="translate(0,0)"/>
<path d="" fill="#F2F3F1" transform="translate(0,0)"/>
<path d="" fill="#F1F2F0" transform="translate(0,0)"/>
<path d="" fill="#F1F2EE" transform="translate(0,0)"/>
<path d="" fill="#F2F1EF" transform="translate(0,0)"/>
<path d="" fill="#F0F1EC" transform="translate(0,0)"/>
<path d="" fill="#F1F2F1" transform="translate(0,0)"/>
<path d="" fill="#F1F2EF" transform="translate(0,0)"/>
<path d="" fill="#F0F0EF" transform="translate(0,0)"/>
<path d="" fill="#F0EFEE" transform="translate(0,0)"/>
<path d="" fill="#F3F2F0" transform="translate(0,0)"/>
<path d="" fill="#F4F4F1" transform="translate(0,0)"/>
<path d="" fill="#EBEAE7" transform="translate(0,0)"/>
<path d="" fill="#F0F2F0" transform="translate(0,0)"/>
<path d="" fill="#F3F2F1" transform="translate(0,0)"/>
<path d="" fill="#EAE9E8" transform="translate(0,0)"/>
<path d="" fill="#E7E7E4" transform="translate(0,0)"/>
<path d="" fill="#E8E8E4" transform="translate(0,0)"/>
<path d="" fill="#E8E8E4" transform="translate(0,0)"/>
<path d="" fill="#E9E9E8" transform="translate(0,0)"/>
<path d="" fill="#8A8C8B" transform="translate(0,0)"/>
<path d="" fill="#B8B8B8" transform="translate(0,0)"/>
<path d="" fill="#E8E9E6" transform="translate(0,0)"/>
<path d="" fill="#EBEBE8" transform="translate(0,0)"/>
<path d="" fill="#EDEFEC" transform="translate(0,0)"/>
<path d="" fill="#ECECEA" transform="translate(0,0)"/>
<path d="" fill="#E9EBE9" transform="translate(0,0)"/>
<path d="" fill="#EDEDEB" transform="translate(0,0)"/>
<path d="" fill="#E9EAE7" transform="translate(0,0)"/>
<path d="" fill="#EDECE9" transform="translate(0,0)"/>
<path d="" fill="#ECECEA" transform="translate(0,0)"/>
<path d="" fill="#585756" transform="translate(0,0)"/>
<path d="" fill="#6D6D6E" transform="translate(0,0)"/>
<path d="" fill="#626363" transform="translate(0,0)"/>
<path d="" fill="#666666" transform="translate(0,0)"/>
<path d="" fill="#626460" transform="translate(0,0)"/>
<path d="" fill="#646362" transform="translate(0,0)"/>
<path d="" fill="#5F5F5F" transform="translate(0,0)"/>
<path d="" fill="#646464" transform="translate(0,0)"/>
<path d="" fill="#464847" transform="translate(0,0)"/>
<path d="" fill="#353735" transform="translate(0,0)"/>
<path d="" fill="#565554" transform="translate(0,0)"/>
<path d="" fill="#4B4A4A" transform="translate(0,0)"/>
<path d="" fill="#393837" transform="translate(0,0)"/>
<path d="" fill="#403F3F" transform="translate(0,0)"/>
<path d="" fill="#454746" transform="translate(0,0)"/>
<path d="" fill="#4A4747" transform="translate(0,0)"/>
<path d="" fill="#4C4A4B" transform="translate(0,0)"/>
<path d="" fill="#4B4B4A" transform="translate(0,0)"/>
<path d="" fill="#484547" transform="translate(0,0)"/>
<path d="" fill="#3F413E" transform="translate(0,0)"/>
<path d="" fill="#464645" transform="translate(0,0)"/>
<path d="" fill="#464746" transform="translate(0,0)"/>
<path d="" fill="#3A3A3A" transform="translate(0,0)"/>
<path d="" fill="#474847" transform="translate(0,0)"/>
<path d="" fill="#454545" transform="translate(0,0)"/>
<path d="" fill="#3F3F3F" transform="translate(0,0)"/>
<path d="" fill="#3E3E40" transform="translate(0,0)"/>
<path d="" fill="#424140" transform="translate(0,0)"/>
<path d="" fill="#272929" transform="translate(0,0)"/>
<path d="" fill="#3D3D3D" transform="translate(0,0)"/>
<path d="" fill="#424141" transform="translate(0,0)"/>
<path d="" fill="#434342" transform="translate(0,0)"/>
<path d="" fill="#2E2F2D" transform="translate(0,0)"/>
<path d="" fill="#3E3F3F" transform="translate(0,0)"/>
<path d="" fill="#424141" transform="translate(0,0)"/>
<path d="" fill="#363535" transform="translate(0,0)"/>
<path d="" fill="#3B3C3A" transform="translate(0,0)"/>
<path d="" fill="#3E3E3E" transform="translate(0,0)"/>
<path d="" fill="#3E3F3D" transform="translate(0,0)"/>
<path d="" fill="#404040" transform="translate(0,0)"/>
<path d="" fill="#414040" transform="translate(0,0)"/>
<path d="" fill="#3C3D3B" transform="translate(0,0)"/>
<path d="" fill="#3D3D3D" transform="translate(0,0)"/>
<path d="" fill="#41403F" transform="translate(0,0)"/>
<path d="" fill="#3F4040" transform="translate(0,0)"/>
</svg>
